<?xml version="1.0" encoding="UTF-8" standalone="no"?>
<!-- Creator: CorelDRAW -->
<svg xmlns:dc="http://purl.org/dc/elements/1.1/" xmlns:cc="http://web.resource.org/cc/" xmlns:rdf="http://www.w3.org/1999/02/22-rdf-syntax-ns#" xmlns:svg="http://www.w3.org/2000/svg" xmlns="http://www.w3.org/2000/svg" xmlns:xlink="http://www.w3.org/1999/xlink" xmlns:sodipodi="http://inkscape.sourceforge.net/DTD/sodipodi-0.dtd" xmlns:inkscape="http://www.inkscape.org/namespaces/inkscape" xml:space="preserve" width="330px" height="500px" style="shape-rendering:geometricPrecision; text-rendering:geometricPrecision; image-rendering:optimizeQuality; fill-rule:evenodd; clip-rule:evenodd" viewBox="0 0 330 499.998" id="svg1375" sodipodi:version="0.32" inkscape:version="0.43" sodipodi:docname="BD-9.svg" sodipodi:docbase="D:\"><metadata id="metadata1423"><rdf:RDF><cc:Work rdf:about=""><dc:format>image/svg+xml</dc:format><dc:type rdf:resource="http://purl.org/dc/dcmitype/StillImage"/></cc:Work></rdf:RDF></metadata><sodipodi:namedview inkscape:window-height="540" inkscape:window-width="813" inkscape:pageshadow="2" inkscape:pageopacity="0.0" borderopacity="1.0" bordercolor="#666666" pagecolor="#ffffff" id="base" showguides="true" inkscape:guide-bbox="true" inkscape:zoom="0.746" inkscape:cx="165" inkscape:cy="257.97587" inkscape:window-x="44" inkscape:window-y="58" inkscape:current-layer="svg1375"/>
 <defs id="defs1377"><linearGradient inkscape:collect="always" xlink:href="#id0" id="linearGradient2050" gradientUnits="userSpaceOnUse" x1="15.189" y1="330.71" x2="52.3028" y2="331.662"/><linearGradient inkscape:collect="always" xlink:href="#id0" id="linearGradient2048" gradientUnits="userSpaceOnUse" x1="15.189" y1="330.71" x2="52.3028" y2="331.662"/><linearGradient inkscape:collect="always" xlink:href="#id0" id="linearGradient2002" gradientUnits="userSpaceOnUse" x1="15.189" y1="330.71" x2="52.3028" y2="331.662"/><linearGradient inkscape:collect="always" xlink:href="#id0" id="linearGradient2000" gradientUnits="userSpaceOnUse" x1="15.189" y1="330.71" x2="52.3028" y2="331.662"/><linearGradient inkscape:collect="always" xlink:href="#id2" id="linearGradient1536" gradientUnits="userSpaceOnUse" x1="76.989" y1="314.153" x2="103.539" y2="343.232"/><linearGradient inkscape:collect="always" xlink:href="#id0" id="linearGradient1558" gradientUnits="userSpaceOnUse" x1="79.8862" y1="344.561" x2="100.796" y2="366.865" gradientTransform="translate(-1.972608,70.73212)"/><linearGradient inkscape:collect="always" xlink:href="#id0" id="linearGradient1550" gradientUnits="userSpaceOnUse" x1="72.927193" y1="363.98337" x2="104.34808" y2="389.45035" gradientTransform="translate(-1.972608,70.73212)"/><linearGradient inkscape:collect="always" xlink:href="#id2" id="linearGradient1542" gradientUnits="userSpaceOnUse" x1="76.989" y1="314.153" x2="103.539" y2="343.232"/><linearGradient inkscape:collect="always" id="linearGradient2695"><stop style="stop-color:#fffffc;stop-opacity:1;" offset="0" id="stop2697"/><stop style="stop-color:#fffffc;stop-opacity:0;" offset="1" id="stop2699"/></linearGradient><linearGradient y2="360.914" x2="322.354" y1="230.894" x1="206.78" gradientUnits="userSpaceOnUse" id="linearGradient2673">
   <stop id="stop2675" style="stop-color:none" offset="0"/>
   <stop id="stop2677" style="stop-color:white" offset="1"/>
  </linearGradient><linearGradient y2="360.914" x2="322.354" y1="230.894" x1="206.78" gradientUnits="userSpaceOnUse" id="linearGradient1733">
   <stop id="stop1735" style="stop-color:#969594" offset="0"/>
   <stop id="stop1737" style="stop-color:white" offset="1"/>
  </linearGradient><linearGradient inkscape:collect="always" xlink:href="#id2" id="linearGradient1658" gradientUnits="userSpaceOnUse" x1="67.0937" y1="25.3406" x2="113.657" y2="69.6343"/><linearGradient inkscape:collect="always" xlink:href="#id0" id="linearGradient1675" gradientUnits="userSpaceOnUse" x1="232.045" y1="10.2437" x2="297.5" y2="83.8807" gradientTransform="translate(6.982295,5.401064)"/>
  <style type="text/css" id="style1379">
   
    .fil0 {fill:#4D5356}
    .fil1 {fill:url(#id0)}
    .fil2 {fill:url(#id1)}
    .fil7 {fill:url(#id2)}
    .fil3 {fill:url(#id3)}
    .fil6 {fill:url(#id4)}
    .fil5 {fill:url(#id5)}
    .fil4 {fill:url(#id6)}
   
  </style>
  <linearGradient id="id0" gradientUnits="userSpaceOnUse" x1="240.95" y1="165.193" x2="288.907" y2="222.741">
   <stop offset="0" style="stop-color:#72706F" id="stop1382"/>
   <stop offset="1" style="stop-color:white" id="stop1384"/>
  </linearGradient>
  <linearGradient id="id1" gradientUnits="userSpaceOnUse" x1="256.832" y1="445.093" x2="272.268" y2="445.093">
   <stop offset="0" style="stop-color:#72706F" id="stop1387"/>
   <stop offset="1" style="stop-color:white" id="stop1389"/>
  </linearGradient>
  <linearGradient id="id2" gradientUnits="userSpaceOnUse" x1="206.78" y1="230.894" x2="322.354" y2="360.914">
   <stop offset="0" style="stop-color:#969594" id="stop1392"/>
   <stop offset="1" style="stop-color:white" id="stop1394"/>
  </linearGradient>
  <linearGradient id="id3" gradientUnits="userSpaceOnUse" href="#id2" x1="256.746" y1="413.872" x2="272.389" y2="431.472">
  </linearGradient>
  <linearGradient id="id4" gradientUnits="userSpaceOnUse" href="#id2" x1="255.278" y1="380.258" x2="273.857" y2="401.161" gradientTransform="translate(3.788902,6.981244)">
  </linearGradient>
  <linearGradient id="id5" gradientUnits="userSpaceOnUse" href="#id2" x1="256.346" y1="392.608" x2="272.787" y2="411.104">
  </linearGradient>
  <linearGradient id="id6" gradientUnits="userSpaceOnUse" href="#id2" x1="256.961" y1="403.251" x2="272.173" y2="420.365">
  </linearGradient>
 
  <metadata id="CorelCorpID_0Corel-Layer"/>
  
  
  
  
  
  
  
  
  
  
 <linearGradient inkscape:collect="always" xlink:href="#id2" id="linearGradient1439" gradientUnits="userSpaceOnUse" x1="206.78" y1="230.894" x2="322.354" y2="360.914"/><linearGradient inkscape:collect="always" xlink:href="#id1" id="linearGradient2334" x1="238.996" y1="405.823" x2="280.70679" y2="422.67249" gradientUnits="userSpaceOnUse" spreadMethod="reflect"/><linearGradient inkscape:collect="always" xlink:href="#id1" id="linearGradient2336" x1="234.65947" y1="390.7095" x2="281.36337" y2="411.8085" gradientUnits="userSpaceOnUse" spreadMethod="reflect"/><linearGradient inkscape:collect="always" xlink:href="#id1" id="linearGradient2338" x1="232.22009" y1="376.04541" x2="280.93594" y2="401.85599" gradientUnits="userSpaceOnUse" spreadMethod="reflect"/><linearGradient inkscape:collect="always" xlink:href="#id1" id="linearGradient2340" x1="235.71848" y1="362.85046" x2="281.12576" y2="390.7095" gradientUnits="userSpaceOnUse" spreadMethod="reflect"/><linearGradient inkscape:collect="always" xlink:href="#linearGradient1733" id="linearGradient2626" x1="228.849" y1="47.4874" x2="299.935" y2="47.4874" gradientUnits="userSpaceOnUse"/><linearGradient inkscape:collect="always" xlink:href="#linearGradient1733" id="linearGradient2635" x1="15.140502" y1="20.530865" x2="172.30508" y2="88.046265" gradientUnits="userSpaceOnUse" gradientTransform="translate(3.193393,-1.58018)"/><radialGradient inkscape:collect="always" xlink:href="#linearGradient2695" id="radialGradient2701" cx="150.4079" cy="54.468674" fx="150.4079" fy="54.468674" r="5.49921" gradientUnits="userSpaceOnUse" gradientTransform="translate(3.193393,-1.58018)"/><radialGradient inkscape:collect="always" xlink:href="#linearGradient2695" id="radialGradient2721" cx="37.985912" cy="54.468674" fx="37.985912" fy="54.468674" r="5.49862" gradientTransform="matrix(1,0,0,1.000107,3.193393,-1.586025)" gradientUnits="userSpaceOnUse"/><linearGradient inkscape:collect="always" xlink:href="#id0" id="linearGradient2243" gradientUnits="userSpaceOnUse" x1="29.2854" y1="195.026" x2="39.6059" y2="195.221"/><linearGradient inkscape:collect="always" xlink:href="#id0" id="linearGradient2245" gradientUnits="userSpaceOnUse" x1="29.2854" y1="195.026" x2="39.6059" y2="195.221"/><linearGradient inkscape:collect="always" xlink:href="#id2" id="linearGradient2247" gradientUnits="userSpaceOnUse" x1="69.5492" y1="169.221" x2="110.791" y2="218.712"/><linearGradient inkscape:collect="always" xlink:href="#id0" id="linearGradient2249" gradientUnits="userSpaceOnUse" x1="29.2854" y1="195.026" x2="39.6059" y2="195.221"/><linearGradient inkscape:collect="always" xlink:href="#id1" id="linearGradient2251" gradientUnits="userSpaceOnUse" x1="29.6315" y1="202.045" x2="150.639" y2="326.004"/><linearGradient inkscape:collect="always" xlink:href="#id2" id="linearGradient2253" gradientUnits="userSpaceOnUse" x1="69.5492" y1="169.221" x2="110.791" y2="218.712"/><linearGradient inkscape:collect="always" xlink:href="#id0" id="linearGradient2255" gradientUnits="userSpaceOnUse" x1="29.2854" y1="195.026" x2="39.6059" y2="195.221"/><linearGradient inkscape:collect="always" xlink:href="#id1" id="linearGradient2257" gradientUnits="userSpaceOnUse" x1="29.6315" y1="202.045" x2="150.639" y2="326.004"/><linearGradient inkscape:collect="always" xlink:href="#id0" id="linearGradient3140" x1="70.954582" y1="425.49643" x2="102.03473" y2="450.37064" gradientUnits="userSpaceOnUse"/><linearGradient inkscape:collect="always" xlink:href="#id0" id="linearGradient3144" x1="76.334625" y1="379.75861" x2="105.70954" y2="404.97354" gradientUnits="userSpaceOnUse"/><linearGradient inkscape:collect="always" xlink:href="#id0" id="linearGradient3152" x1="74.021263" y1="400.13443" x2="102.71621" y2="421.60123" gradientUnits="userSpaceOnUse"/><linearGradient inkscape:collect="always" xlink:href="#id2" id="linearGradient3185" gradientUnits="userSpaceOnUse" x1="76.989" y1="314.153" x2="103.539" y2="343.232"/><linearGradient inkscape:collect="always" xlink:href="#id0" id="linearGradient3187" gradientUnits="userSpaceOnUse" gradientTransform="translate(-1.972608,70.73212)" x1="79.8862" y1="344.561" x2="100.796" y2="366.865"/><linearGradient inkscape:collect="always" xlink:href="#id0" id="linearGradient3189" gradientUnits="userSpaceOnUse" x1="74.021263" y1="400.13443" x2="102.71621" y2="421.60123"/><linearGradient inkscape:collect="always" xlink:href="#id0" id="linearGradient3191" gradientUnits="userSpaceOnUse" x1="70.954582" y1="425.49643" x2="102.03473" y2="450.37064"/><linearGradient inkscape:collect="always" xlink:href="#id0" id="linearGradient3193" gradientUnits="userSpaceOnUse" gradientTransform="translate(-1.972608,70.73212)" x1="72.927193" y1="363.98337" x2="104.34808" y2="389.45035"/><linearGradient inkscape:collect="always" xlink:href="#id2" id="linearGradient3195" gradientUnits="userSpaceOnUse" x1="76.989" y1="314.153" x2="103.539" y2="343.232"/><linearGradient inkscape:collect="always" xlink:href="#id0" id="linearGradient3197" gradientUnits="userSpaceOnUse" x1="76.334625" y1="379.75861" x2="105.70954" y2="404.97354"/><linearGradient inkscape:collect="always" xlink:href="#id1" id="linearGradient3203" gradientUnits="userSpaceOnUse" x1="256.832" y1="445.093" x2="272.268" y2="445.093"/><linearGradient inkscape:collect="always" xlink:href="#id1" id="linearGradient3209" gradientUnits="userSpaceOnUse" x1="256.832" y1="445.093" x2="272.268" y2="445.093"/><linearGradient inkscape:collect="always" xlink:href="#id0" id="linearGradient3259" gradientUnits="userSpaceOnUse" x1="15.189" y1="330.71" x2="52.3028" y2="331.662"/><linearGradient inkscape:collect="always" xlink:href="#id0" id="linearGradient3261" gradientUnits="userSpaceOnUse" x1="15.189" y1="330.71" x2="52.3028" y2="331.662"/>
   
   
   
   
   
   
   
   
   
   
   
  <linearGradient inkscape:collect="always" xlink:href="#id0" id="linearGradient3284" gradientUnits="userSpaceOnUse" x1="15.189" y1="330.71" x2="52.3028" y2="331.662"/><linearGradient inkscape:collect="always" xlink:href="#id0" id="linearGradient3286" gradientUnits="userSpaceOnUse" x1="15.189" y1="330.71" x2="52.3028" y2="331.662"/>
   
   
   
   
   
   
   
   
   
   
   
  <linearGradient inkscape:collect="always" xlink:href="#id0" id="linearGradient3311" gradientUnits="userSpaceOnUse" x1="15.189" y1="330.71" x2="52.3028" y2="331.662"/><linearGradient inkscape:collect="always" xlink:href="#id1" id="linearGradient3324" x1="-31.196224" y1="338.17056" x2="-12.789975" y2="338.17056" gradientUnits="userSpaceOnUse" gradientTransform="translate(46.30405,-6.593261)"/><linearGradient inkscape:collect="always" xlink:href="#id1" id="linearGradient3338" gradientUnits="userSpaceOnUse" gradientTransform="matrix(-1.026352,0,0,1,19.99012,-6.593258)" x1="-31.196224" y1="338.17056" x2="-12.789975" y2="338.17056"/><linearGradient inkscape:collect="always" xlink:href="#id1" id="linearGradient3344" gradientUnits="userSpaceOnUse" gradientTransform="translate(46.30405,-6.593261)" x1="-31.196224" y1="338.17056" x2="-12.789975" y2="338.17056"/><linearGradient inkscape:collect="always" xlink:href="#id1" id="linearGradient3346" gradientUnits="userSpaceOnUse" gradientTransform="matrix(-1.026352,0,0,1,19.99012,-6.593258)" x1="-31.196224" y1="338.17056" x2="-12.789975" y2="338.17056"/><linearGradient inkscape:collect="always" xlink:href="#id1" id="linearGradient3349" gradientUnits="userSpaceOnUse" gradientTransform="matrix(-1.026352,0,0,1,-26.93808,-2.106583)" x1="-31.196224" y1="338.17056" x2="-13.971456" y2="338.17056"/><linearGradient inkscape:collect="always" xlink:href="#id1" id="linearGradient3352" gradientUnits="userSpaceOnUse" gradientTransform="translate(-0.62415,-2.106586)" x1="-31.196224" y1="338.17056" x2="-14.123852" y2="338.17056"/><linearGradient inkscape:collect="always" xlink:href="#id1" id="linearGradient3355" gradientUnits="userSpaceOnUse" gradientTransform="translate(-0.62415,-2.106586)" x1="-31.196224" y1="338.17056" x2="-12.313512" y2="338.17056"/><linearGradient inkscape:collect="always" xlink:href="#id1" id="linearGradient3358" gradientUnits="userSpaceOnUse" gradientTransform="matrix(-1.026352,0,0,1,-26.93808,-2.106583)" x1="-31.196224" y1="338.17056" x2="-12.414059" y2="338.17056"/><linearGradient inkscape:collect="always" xlink:href="#id1" id="linearGradient3372" gradientUnits="userSpaceOnUse" gradientTransform="translate(-0.62415,-2.106586)" x1="-31.196224" y1="338.17056" x2="-12.313512" y2="338.17056"/><linearGradient inkscape:collect="always" xlink:href="#id1" id="linearGradient3374" gradientUnits="userSpaceOnUse" gradientTransform="matrix(-1.026352,0,0,1,-26.93808,-2.106583)" x1="-31.196224" y1="338.17056" x2="-12.414059" y2="338.17056"/><linearGradient inkscape:collect="always" xlink:href="#id0" id="linearGradient3475" gradientUnits="userSpaceOnUse" x1="15.189" y1="330.71" x2="52.3028" y2="331.662"/><linearGradient inkscape:collect="always" xlink:href="#id1" id="linearGradient3477" gradientUnits="userSpaceOnUse" gradientTransform="translate(-0.62415,-2.106586)" x1="-31.196224" y1="338.17056" x2="-12.313512" y2="338.17056"/><linearGradient inkscape:collect="always" xlink:href="#id1" id="linearGradient3479" gradientUnits="userSpaceOnUse" gradientTransform="matrix(-1.026352,0,0,1,-26.93808,-2.106583)" x1="-31.196224" y1="338.17056" x2="-12.414059" y2="338.17056"/><linearGradient inkscape:collect="always" xlink:href="#id0" id="linearGradient3489" gradientUnits="userSpaceOnUse" x1="15.189" y1="330.71" x2="52.3028" y2="331.662"/><linearGradient inkscape:collect="always" xlink:href="#id1" id="linearGradient3491" gradientUnits="userSpaceOnUse" gradientTransform="translate(-0.62415,-2.106586)" x1="-31.196224" y1="338.17056" x2="-12.313512" y2="338.17056"/><linearGradient inkscape:collect="always" xlink:href="#id1" id="linearGradient3493" gradientUnits="userSpaceOnUse" gradientTransform="matrix(-1.026352,0,0,1,-26.93808,-2.106583)" x1="-31.196224" y1="338.17056" x2="-12.414059" y2="338.17056"/></defs>
 <g transform="translate(114.8611,0)" style="fill-rule:evenodd" id="g3425"><g transform="translate(-0.136497,0.41724)" id="g3427" style="fill-rule:evenodd">
    <path style="fill:#373d40" d="M 18.6709,287.908 L 48.8209,287.908 C 51.76539,287.908 54.17484,290.31745 54.17484,293.26076 L 54.17484,369.11116 C 54.17484,372.05565 51.76539,374.46392 48.8209,374.46392 L 18.6709,374.46392 C 15.72641,374.46392 13.31696,372.05565 13.31696,369.11116 L 13.31696,293.26076 C 13.31696,290.31745 15.72641,287.908 18.6709,287.908 L 18.6709,287.908 z " class="fil0" id="path3429"/>
    <polygon style="fill:url(#linearGradient3475)" points="18.724,290.049 48.7677,290.049 49.1492,290.068 49.4646,290.117 49.7693,290.196 50.0622,290.303 50.3433,290.439 50.6079,290.601 50.8559,290.786 51.0862,290.996 51.2965,291.227 51.4819,291.475 51.6437,291.739 51.7783,292.02 51.887,292.313 51.9661,292.617 52.0146,292.932 52.0335,293.315 52.0335,369.057 52.0146,369.438 51.9661,369.754 51.887,370.058 51.7783,370.351 51.6437,370.631 51.4819,370.897 51.2953,371.145 51.0862,371.375 50.8559,371.584 50.6079,371.771 50.3421,371.933 50.0622,372.069 49.7693,372.176 49.4646,372.255 49.1492,372.304 48.7665,372.322 18.7252,372.322 18.3437,372.304 18.0283,372.255 17.7236,372.176 17.4307,372.069 17.1508,371.933 16.885,371.771 16.6358,371.584 16.4055,371.376 16.1976,371.146 16.0098,370.897 15.8492,370.631 15.7134,370.351 15.6059,370.058 15.5268,369.754 15.4783,369.438 15.4583,369.057 15.4583,293.316 15.4783,292.933 15.5268,292.618 15.6059,292.313 15.7134,292.02 15.8492,291.741 16.0098,291.475 16.1965,291.226 16.4055,290.995 16.6358,290.786 16.885,290.601 17.1496,290.439 17.4295,290.303 17.7236,290.196 18.0272,290.117 18.3425,290.068 18.724,290.049 " class="fil1" id="polygon3431"/>
    <polygon style="fill:#656b6f" points="17.4142,290.049 18.0697,290.049 18.0697,373.178 17.4142,373.178 17.4142,290.049 " class="fil2" id="polygon3433"/>
    <polygon style="fill:#656b6f" points="20.4555,290.049 21.111,290.049 21.111,373.178 20.4555,373.178 20.4555,290.049 " class="fil2" id="polygon3435"/>
    <polygon style="fill:#656b6f" points="23.5287,290.049 24.1843,290.049 24.1843,373.178 23.5287,373.178 23.5287,290.049 " class="fil2" id="polygon3437"/>
    <polygon style="fill:#656b6f" points="29.5406,290.049 30.1961,290.049 30.1961,373.178 29.5406,373.178 29.5406,290.049 " class="fil2" id="polygon3439"/>
    <polygon style="fill:#656b6f" points="37.8732,290.049 38.5287,290.049 38.5287,373.178 37.8732,373.178 37.8732,290.049 " class="fil2" id="polygon3441"/>
    <polygon style="fill:#656b6f" points="43.885,290.049 44.5406,290.049 44.5406,373.178 43.885,373.178 43.885,290.049 " class="fil2" id="polygon3443"/>
    <polygon style="fill:#656b6f" points="46.9583,290.049 47.6138,290.049 47.6138,373.178 46.9583,373.178 46.9583,290.049 " class="fil2" id="polygon3445"/>
    <polygon style="fill:#656b6f" points="49.9642,290.049 50.6197,290.049 50.6197,373.178 49.9642,373.178 49.9642,290.049 " class="fil2" id="polygon3447"/>
   </g><path style="fill:#4d5356;fill-rule:evenodd" d="M 18.534403,288.32524 L 48.684403,288.32524 C 51.628893,288.32524 54.038343,290.73469 54.038343,293.678 L 54.038343,369.5284 C 54.038343,372.47289 51.628893,374.88116 48.684403,374.88116 L 18.534403,374.88116 C 15.589913,374.88116 13.180463,372.47289 13.180463,369.5284 L 13.180463,293.678 C 13.180463,290.73469 15.589913,288.32524 18.534403,288.32524 L 18.534403,288.32524 z " class="fil3" id="path3449"/><g transform="translate(46.97913,-4.487958)" id="g3451"><path style="fill:url(#linearGradient3477);fill-opacity:1;fill-rule:evenodd" d="M -28.570377,294.92334 C -30.614263,294.88746 -32.141614,296.91728 -31.820377,298.87911 C -31.801697,324.01591 -31.857732,349.15582 -31.792369,374.29068 C -31.69015,376.28736 -29.592501,377.54023 -27.727229,377.20459 C -22.956195,377.20459 -18.185161,377.20459 -13.414127,377.20459 C -13.414127,349.77751 -13.414127,322.35042 -13.414127,294.92334 C -18.466211,294.92334 -23.518294,294.92334 -28.570377,294.92334 z " id="path3453"/><path style="fill:url(#linearGradient3479);fill-opacity:1;fill-rule:evenodd" d="M 1.744586,294.92334 C 3.8007723,294.87779 5.4120216,296.88066 5.0802312,298.87997 C 5.0610443,324.01658 5.1186038,349.15648 5.0514536,374.29105 C 4.9320235,376.31588 2.7774736,377.53126 0.90036529,377.20459 C -4.0034447,377.20459 -8.9072547,377.20459 -13.811065,377.20459 C -13.811065,349.77751 -13.811065,322.35042 -13.811065,294.92334 C -8.6258478,294.92334 -3.4406309,294.92334 1.744586,294.92334 z " id="path3455"/></g><g id="g3457"><polygon id="polygon3459" class="fil3" points="17.4142,290.049 18.0697,290.049 18.0697,373.178 17.4142,373.178 17.4142,290.049 " style="fill:#4d5356;fill-rule:evenodd" transform="translate(-0.136497,0.41724)"/><polygon id="polygon3461" class="fil3" points="20.4555,290.049 21.111,290.049 21.111,373.178 20.4555,373.178 20.4555,290.049 " style="fill:#4d5356;fill-rule:evenodd" transform="translate(-0.136497,0.41724)"/><polygon id="polygon3463" class="fil3" points="23.5287,290.049 24.1843,290.049 24.1843,373.178 23.5287,373.178 23.5287,290.049 " style="fill:#4d5356;fill-rule:evenodd" transform="translate(-0.136497,0.41724)"/><polygon id="polygon3465" class="fil3" points="29.5406,290.049 30.1961,290.049 30.1961,373.178 29.5406,373.178 29.5406,290.049 " style="fill:#4d5356;fill-rule:evenodd" transform="translate(-0.136497,0.41724)"/><polygon id="polygon3467" class="fil3" points="37.8732,290.049 38.5287,290.049 38.5287,373.178 37.8732,373.178 37.8732,290.049 " style="fill:#4d5356;fill-rule:evenodd" transform="translate(-0.136497,0.41724)"/><polygon id="polygon3469" class="fil3" points="43.885,290.049 44.5406,290.049 44.5406,373.178 43.885,373.178 43.885,290.049 " style="fill:#4d5356;fill-rule:evenodd" transform="translate(-0.136497,0.41724)"/><polygon id="polygon3471" class="fil3" points="46.9583,290.049 47.6138,290.049 47.6138,373.178 46.9583,373.178 46.9583,290.049 " style="fill:#4d5356;fill-rule:evenodd" transform="translate(-0.136497,0.41724)"/><polygon id="polygon3473" class="fil3" points="49.9642,290.049 50.6197,290.049 50.6197,373.178 49.9642,373.178 49.9642,290.049 " style="fill:#4d5356;fill-rule:evenodd" transform="translate(-0.136497,0.41724)"/></g></g><g id="g3376" transform="translate(4,0)"><g transform="translate(-0.136497,0.41724)" id="g1958" style="fill-rule:evenodd">
    <path style="fill:#373d40" d="M 18.6709,287.908 L 48.8209,287.908 C 51.76539,287.908 54.17484,290.31745 54.17484,293.26076 L 54.17484,369.11116 C 54.17484,372.05565 51.76539,374.46392 48.8209,374.46392 L 18.6709,374.46392 C 15.72641,374.46392 13.31696,372.05565 13.31696,369.11116 L 13.31696,293.26076 C 13.31696,290.31745 15.72641,287.908 18.6709,287.908 L 18.6709,287.908 z " class="fil0" id="path1960"/>
    <polygon style="fill:url(#linearGradient3489)" points="18.724,290.049 48.7677,290.049 49.1492,290.068 49.4646,290.117 49.7693,290.196 50.0622,290.303 50.3433,290.439 50.6079,290.601 50.8559,290.786 51.0862,290.996 51.2965,291.227 51.4819,291.475 51.6437,291.739 51.7783,292.02 51.887,292.313 51.9661,292.617 52.0146,292.932 52.0335,293.315 52.0335,369.057 52.0146,369.438 51.9661,369.754 51.887,370.058 51.7783,370.351 51.6437,370.631 51.4819,370.897 51.2953,371.145 51.0862,371.375 50.8559,371.584 50.6079,371.771 50.3421,371.933 50.0622,372.069 49.7693,372.176 49.4646,372.255 49.1492,372.304 48.7665,372.322 18.7252,372.322 18.3437,372.304 18.0283,372.255 17.7236,372.176 17.4307,372.069 17.1508,371.933 16.885,371.771 16.6358,371.584 16.4055,371.376 16.1976,371.146 16.0098,370.897 15.8492,370.631 15.7134,370.351 15.6059,370.058 15.5268,369.754 15.4783,369.438 15.4583,369.057 15.4583,293.316 15.4783,292.933 15.5268,292.618 15.6059,292.313 15.7134,292.02 15.8492,291.741 16.0098,291.475 16.1965,291.226 16.4055,290.995 16.6358,290.786 16.885,290.601 17.1496,290.439 17.4295,290.303 17.7236,290.196 18.0272,290.117 18.3425,290.068 18.724,290.049 " class="fil1" id="polygon1962"/>
    <polygon style="fill:#656b6f" points="17.4142,290.049 18.0697,290.049 18.0697,373.178 17.4142,373.178 17.4142,290.049 " class="fil2" id="polygon1964"/>
    <polygon style="fill:#656b6f" points="20.4555,290.049 21.111,290.049 21.111,373.178 20.4555,373.178 20.4555,290.049 " class="fil2" id="polygon1966"/>
    <polygon style="fill:#656b6f" points="23.5287,290.049 24.1843,290.049 24.1843,373.178 23.5287,373.178 23.5287,290.049 " class="fil2" id="polygon1968"/>
    <polygon style="fill:#656b6f" points="29.5406,290.049 30.1961,290.049 30.1961,373.178 29.5406,373.178 29.5406,290.049 " class="fil2" id="polygon1970"/>
    <polygon style="fill:#656b6f" points="37.8732,290.049 38.5287,290.049 38.5287,373.178 37.8732,373.178 37.8732,290.049 " class="fil2" id="polygon1972"/>
    <polygon style="fill:#656b6f" points="43.885,290.049 44.5406,290.049 44.5406,373.178 43.885,373.178 43.885,290.049 " class="fil2" id="polygon1974"/>
    <polygon style="fill:#656b6f" points="46.9583,290.049 47.6138,290.049 47.6138,373.178 46.9583,373.178 46.9583,290.049 " class="fil2" id="polygon1976"/>
    <polygon style="fill:#656b6f" points="49.9642,290.049 50.6197,290.049 50.6197,373.178 49.9642,373.178 49.9642,290.049 " class="fil2" id="polygon1978"/>
   </g><path style="fill:#4d5356;fill-rule:evenodd" d="M 18.534403,288.32524 L 48.684403,288.32524 C 51.628893,288.32524 54.038343,290.73469 54.038343,293.678 L 54.038343,369.5284 C 54.038343,372.47289 51.628893,374.88116 48.684403,374.88116 L 18.534403,374.88116 C 15.589913,374.88116 13.180463,372.47289 13.180463,369.5284 L 13.180463,293.678 C 13.180463,290.73469 15.589913,288.32524 18.534403,288.32524 L 18.534403,288.32524 z " class="fil3" id="path1980"/><g transform="translate(46.97913,-4.487958)" id="g3360"><path style="fill:url(#linearGradient3491);fill-opacity:1;fill-rule:evenodd" d="M -28.570377,294.92334 C -30.614263,294.88746 -32.141614,296.91728 -31.820377,298.87911 C -31.801697,324.01591 -31.857732,349.15582 -31.792369,374.29068 C -31.69015,376.28736 -29.592501,377.54023 -27.727229,377.20459 C -22.956195,377.20459 -18.185161,377.20459 -13.414127,377.20459 C -13.414127,349.77751 -13.414127,322.35042 -13.414127,294.92334 C -18.466211,294.92334 -23.518294,294.92334 -28.570377,294.92334 z " id="polygon3309"/><path style="fill:url(#linearGradient3493);fill-opacity:1;fill-rule:evenodd" d="M 1.744586,294.92334 C 3.8007723,294.87779 5.4120216,296.88066 5.0802312,298.87997 C 5.0610443,324.01658 5.1186038,349.15648 5.0514536,374.29105 C 4.9320235,376.31588 2.7774736,377.53126 0.90036529,377.20459 C -4.0034447,377.20459 -8.9072547,377.20459 -13.811065,377.20459 C -13.811065,349.77751 -13.811065,322.35042 -13.811065,294.92334 C -8.6258478,294.92334 -3.4406309,294.92334 1.744586,294.92334 z " id="path3336"/></g><g id="g3326"><polygon id="polygon1984" class="fil3" points="17.4142,290.049 18.0697,290.049 18.0697,373.178 17.4142,373.178 17.4142,290.049 " style="fill:#4d5356;fill-rule:evenodd" transform="translate(-0.136497,0.41724)"/><polygon id="polygon1986" class="fil3" points="20.4555,290.049 21.111,290.049 21.111,373.178 20.4555,373.178 20.4555,290.049 " style="fill:#4d5356;fill-rule:evenodd" transform="translate(-0.136497,0.41724)"/><polygon id="polygon1988" class="fil3" points="23.5287,290.049 24.1843,290.049 24.1843,373.178 23.5287,373.178 23.5287,290.049 " style="fill:#4d5356;fill-rule:evenodd" transform="translate(-0.136497,0.41724)"/><polygon id="polygon1990" class="fil3" points="29.5406,290.049 30.1961,290.049 30.1961,373.178 29.5406,373.178 29.5406,290.049 " style="fill:#4d5356;fill-rule:evenodd" transform="translate(-0.136497,0.41724)"/><polygon id="polygon1992" class="fil3" points="37.8732,290.049 38.5287,290.049 38.5287,373.178 37.8732,373.178 37.8732,290.049 " style="fill:#4d5356;fill-rule:evenodd" transform="translate(-0.136497,0.41724)"/><polygon id="polygon1994" class="fil3" points="43.885,290.049 44.5406,290.049 44.5406,373.178 43.885,373.178 43.885,290.049 " style="fill:#4d5356;fill-rule:evenodd" transform="translate(-0.136497,0.41724)"/><polygon id="polygon1996" class="fil3" points="46.9583,290.049 47.6138,290.049 47.6138,373.178 46.9583,373.178 46.9583,290.049 " style="fill:#4d5356;fill-rule:evenodd" transform="translate(-0.136497,0.41724)"/><polygon id="polygon1998" class="fil3" points="49.9642,290.049 50.6197,290.049 50.6197,373.178 49.9642,373.178 49.9642,290.049 " style="fill:#4d5356;fill-rule:evenodd" transform="translate(-0.136497,0.41724)"/></g></g><path style="fill:#4d5356" id="path1402" d="M 230.836,170.585 L 299.0199,170.585 C 300.38525,170.585 301.50258,171.70114 301.50258,173.0665 L 301.50258,214.8657 C 301.50258,216.22987 300.38526,217.3472 299.0199,217.3472 L 230.836,217.3472 C 229.47065,217.3472 228.3545,216.22988 228.3545,214.8657 L 228.3545,173.0665 C 228.3545,171.70115 229.47064,170.585 230.836,170.585 z " class="fil0"/><polygon style="fill:url(#id0)" id="polygon1404" points="231.138,173.369 298.719,173.369 298.719,214.564 231.138,214.564 231.138,173.369 " class="fil1"/><path style="fill:#4d5356" id="path1406" d="M 255.119,401.165 L 273.9812,401.165 L 273.9812,488.1036 C 268.68396,489.78785 266.82726,487.13273 263.0855,487.20242 C 259.7229,487.16699 258.14377,490.85557 255.11896,487.82604 L 255.11896,401.16504 L 255.119,401.165 z " class="fil0"/><polygon style="fill:url(#id1)" id="polygon1408" points="270.891,486.947 270.589,486.95 270.299,486.94 270.018,486.92 269.743,486.889 269.472,486.849 269.206,486.801 268.941,486.744 268.676,486.679 268.409,486.608 268.14,486.53 267.866,486.446 267.586,486.359 267.3,486.268 267.006,486.175 266.704,486.081 266.392,485.988 266.07,485.897 265.737,485.811 265.391,485.73 265.032,485.657 264.663,485.596 264.28,485.545 263.884,485.51 263.474,485.491 263.068,485.49 262.68,485.498 262.267,485.536 261.872,485.596 261.493,485.679 261.133,485.778 260.791,485.89 260.467,486.013 260.161,486.142 259.871,486.273 259.598,486.406 259.341,486.536 259.097,486.661 258.869,486.781 258.654,486.891 258.456,486.989 258.273,487.075 258.106,487.147 257.956,487.204 257.823,487.247 257.708,487.278 257.611,487.296 257.528,487.305 257.454,487.305 257.388,487.3 257.319,487.287 257.238,487.265 257.143,487.227 257.027,487.169 256.887,487.083 256.832,487.043 256.832,402.878 272.268,402.878 272.268,486.782 272.244,486.788 271.88,486.853 271.534,486.9 271.205,486.931 270.891,486.947 " class="fil2"/><path style="fill:#4d5356" id="path1410" d="M 218.513,205.278 L 208.4075,310.844 C 205.34608,338.1617 216.94215,353.9318 227.2047,368.8149 C 239.4445,385.3964 237.8736,398.9803 243.9397,430.5499 C 257.6913,430.5499 271.4428,430.5499 285.1944,430.5499 C 291.26054,398.9802 289.68968,385.3964 301.9306,368.8149 C 312.1932,353.9318 323.7881,338.1618 320.7278,310.844 L 310.6211,205.278 C 279.9183,205.278 249.2156,205.278 218.5128,205.278 L 218.513,205.278 z " class="fil0"/><polygon style="fill:url(#linearGradient2334);fill-opacity:1.0" id="polygon1412" points="244.741,417.793 244.939,419.028 245.373,421.625 245.839,424.313 246.341,427.098 246.428,427.552 282.707,427.552 282.794,427.098 283.296,424.313 283.761,421.625 284.194,419.028 284.394,417.793 244.741,417.793 " class="fil3"/><polygon style="fill:url(#linearGradient2336);fill-opacity:1.0" id="polygon1414" points="243.263,408.219 243.452,409.47 243.795,411.743 244.155,414.091 244.359,415.398 284.776,415.398 284.98,414.091 285.339,411.743 285.683,409.47 285.87,408.219 243.263,408.219 " class="fil4"/><polygon style="fill:url(#linearGradient2338);fill-opacity:1.0" id="polygon1416" points="241.643,397.889 241.847,399.078 242.167,401.041 242.483,403.058 242.799,405.131 242.904,405.823 286.231,405.823 286.335,405.132 286.651,403.057 286.968,401.041 287.288,399.078 287.491,397.889 241.643,397.889 " class="fil5"/><polygon style="fill:url(#linearGradient2340);fill-opacity:1.0" id="polygon1418" points="238.996,385.926 239.164,386.492 239.624,388.193 240.052,389.921 240.451,391.678 240.827,393.468 241.181,395.296 241.217,395.493 287.917,395.493 287.954,395.296 288.308,393.469 288.683,391.678 289.082,389.921 289.511,388.193 289.971,386.492 290.139,385.926 238.996,385.926 " class="fil6"/><path style="fill:url(#linearGradient1439)" d="M 211.39101,311.13101 C 209.44571,325.94161 212.97504,341.20989 220.90271,353.83684 C 226.61395,363.77946 234.88941,372.34716 238.248,383.53201 C 255.79367,383.53201 273.33934,383.53201 290.88501,383.53201 C 294.83791,370.72242 304.89204,361.22319 310.7323,349.36868 C 317.5164,337.03187 319.48595,322.52329 317.50898,308.67625 C 314.30499,275.2095 311.10099,241.74275 307.897,208.276 C 279.01067,208.276 250.12434,208.276 221.23801,208.276 C 217.95567,242.561 214.67334,276.84601 211.39101,311.13101 z " id="polygon1420"/>
<path style="fill:#4d5356;fill-rule:evenodd" id="path1558" d="M 23.327595,16.380584 L 170.50359,16.380584 C 174.66461,16.380584 178.06737,19.784524 178.06737,23.944364 L 178.06737,81.472364 C 178.06737,85.632204 174.66461,89.036144 170.50359,89.036144 L 23.327595,89.036144 C 19.167755,89.036144 15.763815,85.632204 15.763815,81.472364 L 15.763815,23.944364 C 15.763815,19.784524 19.167755,16.380584 23.327595,16.380584 L 23.327595,16.380584 z " class="fil0"/><path style="fill:url(#linearGradient2635);fill-opacity:1;fill-rule:evenodd" id="path1560" d="M 23.327595,18.950684 L 170.50359,18.950684 C 173.25083,18.950684 175.49847,21.197144 175.49847,23.944384 L 175.49847,81.472384 C 175.49847,84.219624 173.25083,86.466084 170.50359,86.466084 L 23.327595,86.466084 C 20.580355,86.466084 18.333895,84.219624 18.333895,81.472384 L 18.333895,23.944384 C 18.333895,21.197144 20.580355,18.950684 23.327595,18.950684 L 23.327595,18.950684 z " class="fil1"/><path style="fill:#4d5356;fill-rule:evenodd" id="path1562" d="M 41.179895,46.105384 C 44.925175,46.105384 47.962965,49.143184 47.962965,52.888454 C 47.962965,56.634914 44.925165,59.672704 41.179895,59.672704 C 37.433435,59.672704 34.395645,56.634904 34.395645,52.888454 C 34.395645,49.143174 37.433445,46.105384 41.179895,46.105384 z " class="fil0"/><path style="fill:url(#radialGradient2721);fill-opacity:1;fill-rule:evenodd;stroke:none;stroke-opacity:1" id="path1564" d="M 41.179895,47.389284 C 44.215325,47.389284 46.677925,49.851884 46.677925,52.888494 C 46.677925,55.925104 44.215325,58.387704 41.179895,58.387704 C 38.143285,58.387704 35.680685,55.925104 35.680685,52.888494 C 35.680685,49.851884 38.143285,47.389284 41.179895,47.389284 z " class="fil2"/><path style="fill:#4d5356;fill-rule:evenodd" id="path1566" d="M 153.60129,46.105384 C 157.34776,46.105384 160.38555,49.143184 160.38555,52.888454 C 160.38555,56.634914 157.34774,59.672704 153.60129,59.672704 C 149.85601,59.672704 146.81822,56.634904 146.81822,52.888454 C 146.81822,49.143174 149.85602,46.105384 153.60129,46.105384 L 153.60129,46.105384 z " class="fil0"/><path style="fill:url(#radialGradient2701);fill-opacity:1;fill-rule:evenodd" id="path1568" d="M 153.60129,47.389284 C 156.6379,47.389284 159.1005,49.851884 159.1005,52.888494 C 159.1005,55.925104 156.6379,58.387704 153.60129,58.387704 C 150.56468,58.387704 148.10208,55.925104 148.10208,52.888494 C 148.10208,49.851884 150.56468,47.389284 153.60129,47.389284 z " class="fil3"/><path style="fill:#4d5356;fill-rule:evenodd" id="path1570" d="M 65.954695,71.019584 L 128.75979,71.019584 C 131.70428,71.019584 134.72555,68.546354 134.11255,65.666824 L 128.67357,40.110124 C 128.06176,37.230594 126.26412,34.757364 123.32081,34.757364 L 71.393615,34.757364 C 68.450305,34.757364 66.653855,37.231774 66.040855,40.110124 L 60.601875,65.666824 C 59.988883,68.546354 63.011325,71.019584 65.954635,71.019584 L 65.954695,71.019584 z " class="fil0"/><polygon transform="translate(6.982295,5.401064)" style="fill:url(#linearGradient1658);fill-rule:evenodd" id="polygon1572" points="59.0055,64.3335 121.744,64.3335 122.2,64.3098 122.624,64.2461 123.047,64.1398 123.462,63.9945 123.862,63.8126 124.24,63.5965 124.591,63.352 124.909,63.0827 125.19,62.7933 125.426,62.4909 125.619,62.178 125.764,61.8591 125.863,61.5378 125.914,61.213 125.919,60.8799 125.864,60.4866 120.438,34.9937 120.322,34.5094 120.187,34.0571 120.028,33.6224 119.849,33.2079 119.649,32.8181 119.43,32.4555 119.193,32.1224 118.941,31.8213 118.674,31.5531 118.393,31.3193 118.097,31.1197 117.787,30.9531 117.459,30.822 117.112,30.7252 116.739,30.6638 116.304,30.6413 64.4457,30.6413 64.0122,30.6638 63.639,30.7252 63.2917,30.822 62.9646,30.9543 62.6539,31.1197 62.3587,31.3193 62.0776,31.5543 61.8094,31.8213 61.5579,32.1224 61.3205,32.4555 61.102,32.8193 60.9024,33.2079 60.7228,33.6224 60.5646,34.0571 60.4287,34.5106 60.3118,34.9949 54.8858,60.4854 54.8327,60.8787 54.8362,61.2118 54.8882,61.5378 54.9874,61.8591 55.1327,62.178 55.3252,62.4909 55.5626,62.7933 55.8413,63.0827 56.1602,63.352 56.5098,63.5965 56.889,63.8114 57.2882,63.9933 57.7039,64.1398 58.1268,64.2461 58.5508,64.3098 59.0055,64.3335 " class="fil4"/><path style="fill:#131516;fill-rule:evenodd" id="path1574" d="M 77.499995,43.884984 C 78.793305,43.884984 79.843305,44.933804 79.843305,46.228294 C 79.843305,47.521604 78.793305,48.571604 77.499995,48.571604 C 76.205505,48.571604 75.155505,47.521604 75.155505,46.228294 C 75.155505,44.933804 76.205505,43.884984 77.499995,43.884984 z " class="fil5"/><path style="fill:#131516;fill-rule:evenodd" id="path1576" d="M 103.59999,43.884984 C 104.89448,43.884984 105.9433,44.933804 105.9433,46.228294 C 105.9433,47.521604 104.89448,48.571604 103.59999,48.571604 C 102.3055,48.571604 101.25669,47.521604 101.25669,46.228294 C 101.25669,44.933804 102.3055,43.884984 103.59999,43.884984 z " class="fil5"/><path style="fill:#131516;fill-rule:evenodd" id="path1578" d="M 116.65029,43.884984 C 117.94478,43.884984 118.9936,44.933804 118.9936,46.228294 C 118.9936,47.521604 117.94478,48.571604 116.65029,48.571604 C 115.3558,48.571604 114.30698,47.521604 114.30698,46.228294 C 114.30698,44.933804 115.3558,43.884984 116.65029,43.884984 z " class="fil5"/><path style="fill:#131516;fill-rule:evenodd" id="path1580" d="M 71.546095,56.666784 C 72.839405,56.666784 73.889405,57.715604 73.889405,59.010094 C 73.889405,60.304584 72.839405,61.353404 71.546095,61.353404 C 70.251605,61.353404 69.202785,60.304584 69.202785,59.010094 C 69.202785,57.715604 70.251605,56.666784 71.546095,56.666784 z " class="fil5"/><path style="fill:#131516;fill-rule:evenodd" id="path1582" d="M 97.239795,56.666784 C 98.534285,56.666784 99.583105,57.715604 99.583105,59.010094 C 99.583105,60.304584 98.534285,61.353404 97.239795,61.353404 C 95.945305,61.353404 94.896485,60.304584 94.896485,59.010094 C 94.896485,57.715604 95.945305,56.666784 97.239795,56.666784 z " class="fil5"/><path style="fill:#131516;fill-rule:evenodd" id="path1584" d="M 110.08629,56.666784 C 111.38078,56.666784 112.4296,57.715604 112.4296,59.010094 C 112.4296,60.304584 111.38078,61.353404 110.08629,61.353404 C 108.7918,61.353404 107.74298,60.304584 107.74298,59.010094 C 107.74298,57.715604 108.7918,56.666784 110.08629,56.666784 z " class="fil5"/><path style="fill:#131516;fill-rule:evenodd" id="path1586" d="M 84.392895,56.666784 C 85.686205,56.666784 86.736205,57.715604 86.736205,59.010094 C 86.736205,60.304584 85.686205,61.353404 84.392895,61.353404 C 83.098405,61.353404 82.049585,60.304584 82.049585,59.010094 C 82.049585,57.715604 83.098405,56.666784 84.392895,56.666784 z " class="fil5"/><path style="fill:#131516;fill-rule:evenodd" id="path1588" d="M 122.93329,56.666784 C 124.22778,56.666784 125.2766,57.715604 125.2766,59.010094 C 125.2766,60.304584 124.22778,61.353404 122.93329,61.353404 C 121.63998,61.353404 120.58998,60.304584 120.58998,59.010094 C 120.58998,57.715604 121.63998,56.666784 122.93329,56.666784 z " class="fil5"/><path style="fill:#131516;fill-rule:evenodd" id="path1590" d="M 90.549995,43.884984 C 91.843305,43.884984 92.893305,44.933804 92.893305,46.228294 C 92.893305,47.521604 91.843305,48.571604 90.549995,48.571604 C 89.255505,48.571604 88.206685,47.521604 88.206685,46.228294 C 88.206685,44.933804 89.255505,43.884984 90.549995,43.884984 z " class="fil5"/><path style="fill:#4d5356;fill-rule:evenodd" id="path1592" d="M 232.67229,24.374284 L 310.83649,24.374284 C 314.74476,24.374284 317.942,27.571524 317.942,31.479794 L 317.942,73.447894 C 317.942,77.356164 314.74476,80.554584 310.83649,80.554584 L 232.67229,80.554584 C 228.76403,80.554584 225.56678,77.356154 225.56678,73.447894 L 225.56678,31.479794 C 225.56678,27.571524 228.76403,24.374284 232.67229,24.374284 L 232.67229,24.374284 z " class="fil0"/><path style="fill:url(#linearGradient1675);fill-rule:evenodd" id="path1594" d="M 232.67229,26.086884 L 310.83649,26.086884 C 313.80343,26.086884 316.2294,28.512864 316.2294,31.479794 L 316.2294,73.447894 C 316.2294,76.414824 313.80343,78.840804 310.83649,78.840804 L 232.67229,78.840804 C 229.70655,78.840804 227.28056,76.414824 227.28056,73.447894 L 227.28056,31.479794 C 227.28056,28.512864 229.70655,26.086884 232.67229,26.086884 L 232.67229,26.086884 z " class="fil6"/><path style="fill:#4d5356;fill-rule:evenodd" id="path1596" d="M 239.97229,71.019584 L 302.77619,71.019584 C 305.72068,71.019584 308.74195,68.546354 308.13013,65.666824 L 302.69116,40.110124 C 302.07816,37.230594 300.28171,34.757364 297.33721,34.757364 L 245.41121,34.757364 C 242.46672,34.757364 240.67028,37.231774 240.05728,40.110124 L 234.61829,65.666824 C 234.00648,68.546354 237.02774,71.019584 239.97223,71.019584 L 239.97229,71.019584 z " class="fil0"/><polygon transform="translate(6.982295,5.401064)" style="fill:url(#linearGradient2626);fill-opacity:1;fill-rule:evenodd" id="polygon1598" points="233.023,64.3335 295.762,64.3335 296.217,64.3098 296.642,64.2461 297.065,64.1398 297.48,63.9945 297.88,63.8126 298.258,63.5965 298.609,63.352 298.926,63.0827 299.206,62.7933 299.443,62.4909 299.635,62.178 299.78,61.8591 299.88,61.5378 299.931,61.213 299.935,60.8799 299.882,60.4866 294.456,34.9937 294.339,34.5094 294.203,34.0571 294.046,33.6224 293.865,33.2079 293.666,32.8181 293.447,32.4555 293.211,32.1224 292.958,31.8213 292.69,31.5531 292.409,31.3193 292.114,31.1197 291.803,30.9531 291.476,30.822 291.129,30.7252 290.757,30.6638 290.321,30.6413 238.463,30.6413 238.029,30.6638 237.657,30.7252 237.308,30.822 236.981,30.9543 236.672,31.1197 236.375,31.3193 236.094,31.5543 235.827,31.8213 235.574,32.1224 235.338,32.4555 235.119,32.8193 234.919,33.2079 234.739,33.6224 234.581,34.0571 234.445,34.5106 234.328,34.9949 228.904,60.4854 228.849,60.8787 228.854,61.2118 228.906,61.5378 229.004,61.8591 229.15,62.178 229.343,62.4909 229.579,62.7933 229.859,63.0827 230.177,63.352 230.528,63.5965 230.906,63.8114 231.306,63.9933 231.72,64.1398 232.143,64.2461 232.569,64.3098 233.023,64.3335 " class="fil4"/><path style="fill:#131516;fill-rule:evenodd" id="path1600" d="M 251.51629,43.884984 C 252.81078,43.884984 253.8596,44.933804 253.8596,46.228294 C 253.8596,47.521604 252.81078,48.571604 251.51629,48.571604 C 250.2218,48.571604 249.17298,47.521604 249.17298,46.228294 C 249.17298,44.933804 250.2218,43.884984 251.51629,43.884984 z " class="fil5"/><path style="fill:#131516;fill-rule:evenodd" id="path1602" d="M 277.61629,43.884984 C 278.91078,43.884984 279.9596,44.933804 279.9596,46.228294 C 279.9596,47.521604 278.91078,48.571604 277.61629,48.571604 C 276.32298,48.571604 275.27299,47.521604 275.27299,46.228294 C 275.27299,44.933804 276.32298,43.884984 277.61629,43.884984 z " class="fil5"/><path style="fill:#131516;fill-rule:evenodd" id="path1604" d="M 290.6663,43.884984 C 291.96079,43.884984 293.01078,44.933804 293.01078,46.228294 C 293.01078,47.521604 291.96079,48.571604 290.6663,48.571604 C 289.37299,48.571604 288.32298,47.521604 288.32298,46.228294 C 288.32298,44.933804 289.37299,43.884984 290.6663,43.884984 z " class="fil5"/><path style="fill:#131516;fill-rule:evenodd" id="path1606" d="M 245.5623,56.666784 C 246.85678,56.666784 247.9056,57.715604 247.9056,59.010094 C 247.9056,60.304584 246.85678,61.353404 245.5623,61.353404 C 244.26898,61.353404 243.21899,60.304584 243.21899,59.010094 C 243.21899,57.715604 244.26898,56.666784 245.5623,56.666784 z " class="fil5"/><path style="fill:#131516;fill-rule:evenodd" id="path1608" d="M 271.25629,56.666784 C 272.55078,56.666784 273.5996,57.715604 273.5996,59.010094 C 273.5996,60.304584 272.55078,61.353404 271.25629,61.353404 C 269.96298,61.353404 268.91298,60.304584 268.91298,59.010094 C 268.91298,57.715604 269.96298,56.666784 271.25629,56.666784 z " class="fil5"/><path style="fill:#131516;fill-rule:evenodd" id="path1610" d="M 284.10329,56.666784 C 285.39778,56.666784 286.44779,57.715604 286.44779,59.010094 C 286.44779,60.304584 285.39778,61.353404 284.10329,61.353404 C 282.80999,61.353404 281.75998,60.304584 281.75998,59.010094 C 281.75998,57.715604 282.80999,56.666784 284.10329,56.666784 z " class="fil5"/><path style="fill:#131516;fill-rule:evenodd" id="path1612" d="M 258.40929,56.666784 C 259.70378,56.666784 260.7526,57.715604 260.7526,59.010094 C 260.7526,60.304584 259.70378,61.353404 258.40929,61.353404 C 257.11598,61.353404 256.06598,60.304584 256.06598,59.010094 C 256.06598,57.715604 257.11598,56.666784 258.40929,56.666784 z " class="fil5"/><path style="fill:#131516;fill-rule:evenodd" id="path1614" d="M 296.9503,56.666784 C 298.24479,56.666784 299.29478,57.715604 299.29478,59.010094 C 299.29478,60.304584 298.24479,61.353404 296.9503,61.353404 C 295.65699,61.353404 294.60698,60.304584 294.60698,59.010094 C 294.60698,57.715604 295.65699,56.666784 296.9503,56.666784 z " class="fil5"/><path style="fill:#131516;fill-rule:evenodd" id="path1616" d="M 264.5663,43.884984 C 265.86079,43.884984 266.9096,44.933804 266.9096,46.228294 C 266.9096,47.521604 265.86079,48.571604 264.5663,48.571604 C 263.27299,48.571604 262.22298,47.521604 262.22298,46.228294 C 262.22298,44.933804 263.27299,43.884984 264.5663,43.884984 z " class="fil5"/><g id="g3205" transform="translate(3.227647,0)"><path class="fil0" d="M 80.381248,399.7705 L 99.243448,399.7705 L 99.243448,486.7091 C 93.946208,488.39335 92.089508,485.73823 88.347748,485.80792 C 84.985148,485.77249 83.406018,489.46107 80.381208,486.43154 L 80.381208,399.77054 L 80.381248,399.7705 z " id="path3199" style="fill:#4d5356;fill-rule:evenodd"/><polygon class="fil2" points="270.891,486.947 270.589,486.95 270.299,486.94 270.018,486.92 269.743,486.889 269.472,486.849 269.206,486.801 268.941,486.744 268.676,486.679 268.409,486.608 268.14,486.53 267.866,486.446 267.586,486.359 267.3,486.268 267.006,486.175 266.704,486.081 266.392,485.988 266.07,485.897 265.737,485.811 265.391,485.73 265.032,485.657 264.663,485.596 264.28,485.545 263.884,485.51 263.474,485.491 263.068,485.49 262.68,485.498 262.267,485.536 261.872,485.596 261.493,485.679 261.133,485.778 260.791,485.89 260.467,486.013 260.161,486.142 259.871,486.273 259.598,486.406 259.341,486.536 259.097,486.661 258.869,486.781 258.654,486.891 258.456,486.989 258.273,487.075 258.106,487.147 257.956,487.204 257.823,487.247 257.708,487.278 257.611,487.296 257.528,487.305 257.454,487.305 257.388,487.3 257.319,487.287 257.238,487.265 257.143,487.227 257.027,487.169 256.887,487.083 256.832,487.043 256.832,402.878 272.268,402.878 272.268,486.782 272.244,486.788 271.88,486.853 271.534,486.9 271.205,486.931 270.891,486.947 " id="polygon3201" style="fill:url(#linearGradient3209);fill-rule:evenodd" transform="translate(-174.7377,-1.394496)"/></g><g id="g3154" transform="translate(4.748033,-69.85227)"><g id="_129052128" style="fill-rule:evenodd" transform="translate(-1.972608,70.73212)">
   <path id="_129052992" class="fil0" d="M 73.539,349.372 L 107.1437,349.372 C 108.42165,349.372 109.46811,350.41728 109.46811,351.69641 L 109.46811,359.72791 C 109.46811,361.00704 108.42165,362.05232 107.1437,362.05232 L 73.539,362.05232 C 72.25987,362.05232 71.21341,361.00704 71.21341,359.72791 L 71.21341,351.69641 C 71.21341,350.41728 72.25987,349.372 73.539,349.372 L 73.539,349.372 z " style="fill:#4d5356"/>
   <path id="_129052440" class="fil1" d="M 73.539,351.085 L 107.1437,351.085 C 107.48031,351.085 107.75551,351.3602 107.75551,351.69681 L 107.75551,359.72831 C 107.75551,360.06492 107.48031,360.34012 107.1437,360.34012 L 73.539,360.34012 C 73.202386,360.34012 72.927189,360.06492 72.927189,359.72831 L 72.927189,351.69681 C 72.927189,351.3602 73.202386,351.085 73.539,351.085 L 73.539,351.085 z " style="fill:url(#id4)"/>
  </g><g id="_129050712" style="fill-rule:evenodd" transform="translate(-1.972608,70.73212)">
   <path id="_129051576" class="fil0" d="M 73.539,336.691 L 107.1437,336.691 C 108.42165,336.691 109.46811,337.73746 109.46811,339.01659 L 109.46811,347.0469 C 109.46811,348.32603 108.42165,349.37249 107.1437,349.37249 L 73.539,349.37249 C 72.25987,349.37249 71.21341,348.32603 71.21341,347.0469 L 71.21341,339.01659 C 71.21341,337.73746 72.25987,336.691 73.539,336.691 L 73.539,336.691 z " style="fill:#4d5356"/>
   <path id="_129051024" class="fil2" d="M 73.539,338.405 L 107.1437,338.405 C 107.48031,338.405 107.75551,338.6802 107.75551,339.01681 L 107.75551,347.04712 C 107.75551,347.38373 107.48031,347.65893 107.1437,347.65893 L 73.539,347.65893 C 73.202386,347.65893 72.927189,347.38373 72.927189,347.04712 L 72.927189,339.01681 C 72.927189,338.6802 73.202386,338.405 73.539,338.405 L 73.539,338.405 z " style="fill:url(#id5)"/>
  </g><g id="_129049160" style="fill-rule:evenodd" transform="translate(-1.972608,70.73212)">
   <path id="_129050160" class="fil0" d="M 73.539,362.053 L 107.1437,362.053 C 108.42165,362.053 109.46811,363.09946 109.46811,364.37859 L 109.46811,372.4089 C 109.46811,373.68803 108.42165,374.73449 107.1437,374.73449 L 73.539,374.73449 C 72.25987,374.73449 71.21341,373.68803 71.21341,372.4089 L 71.21341,364.37859 C 71.21341,363.09946 72.25987,362.053 73.539,362.053 L 73.539,362.053 z " style="fill:#4d5356"/>
   <path id="_129049472" class="fil2" d="M 73.539,363.767 L 107.1437,363.767 C 107.48031,363.767 107.75551,364.0422 107.75551,364.37881 L 107.75551,372.40912 C 107.75551,372.74573 107.48031,373.02093 107.1437,373.02093 L 73.539,373.02093 C 73.202386,373.02093 72.927189,372.74573 72.927189,372.40912 L 72.927189,364.37881 C 72.927189,364.0422 73.202386,363.767 73.539,363.767 L 73.539,363.767 z " style="fill:url(#id5)"/>
  </g><g id="_129047744" style="fill-rule:evenodd" transform="translate(-1.972608,70.73212)">
   <path id="_129048608" class="fil0" d="M 73.539,374.734 L 107.1437,374.734 C 108.42165,374.734 109.46811,375.78046 109.46811,377.05841 L 109.46811,385.08991 C 109.46811,386.36904 108.42165,387.41432 107.1437,387.41432 L 73.539,387.41432 C 72.25987,387.41432 71.21341,386.36904 71.21341,385.08991 L 71.21341,377.05841 C 71.21341,375.78046 72.25987,374.734 73.539,374.734 L 73.539,374.734 z " style="fill:#4d5356"/>
   <path id="_129048056" class="fil1" d="M 73.539,376.447 L 107.1437,376.447 C 107.48031,376.447 107.75551,376.7222 107.75551,377.05881 L 107.75551,385.09031 C 107.75551,385.42692 107.48031,385.70212 107.1437,385.70212 L 73.539,385.70212 C 73.202386,385.70212 72.927189,385.42692 72.927189,385.09031 L 72.927189,377.05881 C 72.927189,376.7222 73.202386,376.447 73.539,376.447 L 73.539,376.447 z " style="fill:url(#id4)"/>
  </g><g id="_129045536" style="fill-rule:evenodd" transform="translate(-1.972608,70.73212)">
   <path id="_129047032" class="fil3" d="M 63.4713,316.547 L 117.0579,316.547 L 117.0579,328.6923 C 117.0579,335.37261 111.59176,340.8376 104.9126,340.8376 L 75.6165,340.8376 C 68.93737,340.8376 63.4712,335.37264 63.4712,328.6923 L 63.4712,316.547 L 63.4713,316.547 z " style="fill:#373d40"/>
   <polygon id="_129045848" class="fil4" points="65.6126,318.689 114.917,318.689 114.917,328.665 114.902,329.206 114.863,329.712 114.8,330.209 114.712,330.7 114.6,331.181 114.465,331.654 114.307,332.118 114.128,332.571 113.927,333.013 113.706,333.444 113.464,333.863 113.203,334.27 112.923,334.663 112.624,335.042 112.309,335.406 111.976,335.756 111.627,336.087 111.262,336.404 110.884,336.702 110.49,336.983 110.083,337.244 109.664,337.485 109.233,337.707 108.791,337.907 108.338,338.087 107.875,338.244 107.401,338.38 106.919,338.492 106.43,338.58 105.932,338.643 105.425,338.682 104.884,338.696 75.6449,338.696 75.1039,338.682 74.5984,338.643 74.1,338.58 73.6098,338.492 73.1291,338.38 72.6555,338.244 72.1913,338.087 71.739,337.907 71.2972,337.707 70.8661,337.485 70.4457,337.244 70.0394,336.983 69.6461,336.702 69.2669,336.404 68.9031,336.087 68.5535,335.756 68.2217,335.407 67.9063,335.042 67.6075,334.663 67.3276,334.27 67.0665,333.863 66.8244,333.444 66.6024,333.013 66.4016,332.571 66.2232,332.118 66.065,331.655 65.9303,331.181 65.8181,330.699 65.7295,330.209 65.6657,329.711 65.6268,329.205 65.6126,328.664 65.6126,318.689 " style="fill:url(#linearGradient3185)"/>
  </g><path class="fil0" d="M 69.240792,458.03817 L 107.49549,458.03817 L 107.49549,465.824 C 107.49549,470.10668 103.99116,473.60983 99.709661,473.60983 L 77.026562,473.60983 C 72.745062,473.60983 69.240732,470.10668 69.240732,465.824 L 69.240732,458.03817 L 69.240792,458.03817 z " id="path1430" style="fill:#4d5356;fill-rule:evenodd"/><polygon class="fil5" points="72.9272,389.019 107.754,389.019 107.754,395.07 107.747,395.404 107.724,395.711 107.685,396.012 107.631,396.311 107.563,396.602 107.481,396.889 107.386,397.169 107.276,397.446 107.154,397.714 107.021,397.975 106.873,398.23 106.715,398.477 106.545,398.715 106.364,398.946 106.172,399.167 105.97,399.379 105.758,399.581 105.536,399.772 105.306,399.954 105.067,400.124 104.82,400.283 104.565,400.429 104.304,400.565 104.035,400.687 103.761,400.795 103.48,400.891 103.193,400.972 102.901,401.041 102.604,401.094 102.3,401.133 101.994,401.157 101.66,401.165 79.0217,401.165 78.6886,401.157 78.3827,401.133 78.0791,401.094 77.7815,401.041 77.4898,400.972 77.2028,400.891 76.9217,400.795 76.6465,400.687 76.3795,400.565 76.1173,400.429 75.8622,400.283 75.6154,400.124 75.3768,399.954 75.1465,399.772 74.9244,399.58 74.713,399.379 74.511,399.168 74.3197,398.946 74.1378,398.714 73.9677,398.477 73.8094,398.23 73.6618,397.975 73.5272,397.713 73.4055,397.444 73.2969,397.17 73.2012,396.889 73.1185,396.601 73.0512,396.309 72.998,396.012 72.9591,395.709 72.9354,395.404 72.9272,395.07 72.9272,389.019 " id="polygon1432" style="fill:url(#id3);fill-rule:evenodd" transform="translate(-1.972608,70.73212)"/><path class="fil0" d="M 71.566392,420.10417 L 105.17109,420.10417 C 106.44904,420.10417 107.4955,421.14945 107.4955,422.42858 L 107.4955,430.46008 C 107.4955,431.73921 106.44904,432.78449 105.17109,432.78449 L 71.566392,432.78449 C 70.287262,432.78449 69.240802,431.73921 69.240802,430.46008 L 69.240802,422.42858 C 69.240802,421.14945 70.287262,420.10417 71.566392,420.10417 L 71.566392,420.10417 z " id="path1434" style="fill:#4d5356;fill-rule:evenodd"/><path class="fil6" d="M 71.566392,421.81717 L 105.17109,421.81717 C 105.5077,421.81717 105.7829,422.09237 105.7829,422.42898 L 105.7829,430.46048 C 105.7829,430.79709 105.5077,431.07229 105.17109,431.07229 L 71.566392,431.07229 C 71.229778,431.07229 70.954581,430.79709 70.954581,430.46048 L 70.954581,422.42898 C 70.954581,422.09237 71.229778,421.81717 71.566392,421.81717 L 71.566392,421.81717 z " id="path1436" style="fill:url(#linearGradient3187);fill-rule:evenodd"/><path class="fil0" d="M 71.566392,407.42317 L 105.17109,407.42317 C 106.44904,407.42317 107.4955,408.46963 107.4955,409.74876 L 107.4955,417.77907 C 107.4955,419.0582 106.44904,420.10466 105.17109,420.10466 L 71.566392,420.10466 C 70.287262,420.10466 69.240802,419.0582 69.240802,417.77907 L 69.240802,409.74876 C 69.240802,408.46963 70.287262,407.42317 71.566392,407.42317 L 71.566392,407.42317 z " id="path1438" style="fill:#4d5356;fill-rule:evenodd"/><path class="fil7" d="M 71.566392,409.13717 L 105.17109,409.13717 C 105.5077,409.13717 105.7829,409.41237 105.7829,409.74898 L 105.7829,417.77929 C 105.7829,418.1159 105.5077,418.3911 105.17109,418.3911 L 71.566392,418.3911 C 71.229778,418.3911 70.954581,418.1159 70.954581,417.77929 L 70.954581,409.74898 C 70.954581,409.41237 71.229778,409.13717 71.566392,409.13717 L 71.566392,409.13717 z " id="path1440" style="fill:url(#linearGradient3189);fill-opacity:1;fill-rule:evenodd"/><path class="fil0" d="M 71.566392,432.78517 L 105.17109,432.78517 C 106.44904,432.78517 107.4955,433.83163 107.4955,435.11076 L 107.4955,443.14107 C 107.4955,444.4202 106.44904,445.46666 105.17109,445.46666 L 71.566392,445.46666 C 70.287262,445.46666 69.240802,444.4202 69.240802,443.14107 L 69.240802,435.11076 C 69.240802,433.83163 70.287262,432.78517 71.566392,432.78517 L 71.566392,432.78517 z " id="path1442" style="fill:#4d5356;fill-rule:evenodd"/><path class="fil7" d="M 71.566392,434.49917 L 105.17109,434.49917 C 105.5077,434.49917 105.7829,434.77437 105.7829,435.11098 L 105.7829,443.14129 C 105.7829,443.4779 105.5077,443.7531 105.17109,443.7531 L 71.566392,443.7531 C 71.229778,443.7531 70.954581,443.4779 70.954581,443.14129 L 70.954581,435.11098 C 70.954581,434.77437 71.229778,434.49917 71.566392,434.49917 L 71.566392,434.49917 z " id="path1444" style="fill:url(#linearGradient3191);fill-opacity:1;fill-rule:evenodd"/><path class="fil0" d="M 71.566392,445.46617 L 105.17109,445.46617 C 106.44904,445.46617 107.4955,446.51263 107.4955,447.79058 L 107.4955,455.82208 C 107.4955,457.10121 106.44904,458.14649 105.17109,458.14649 L 71.566392,458.14649 C 70.287262,458.14649 69.240802,457.10121 69.240802,455.82208 L 69.240802,447.79058 C 69.240802,446.51263 70.287262,445.46617 71.566392,445.46617 L 71.566392,445.46617 z " id="path1446" style="fill:#4d5356;fill-rule:evenodd"/><path class="fil6" d="M 71.566392,447.17917 L 105.17109,447.17917 C 105.5077,447.17917 105.7829,447.45437 105.7829,447.79098 L 105.7829,455.82248 C 105.7829,456.15909 105.5077,456.43429 105.17109,456.43429 L 71.566392,456.43429 C 71.229778,456.43429 70.954581,456.15909 70.954581,455.82248 L 70.954581,447.79098 C 70.954581,447.45437 71.229778,447.17917 71.566392,447.17917 L 71.566392,447.17917 z " id="path1448" style="fill:url(#linearGradient3193);fill-rule:evenodd"/><path class="fil0" d="M 61.498692,387.27917 L 115.08529,387.27917 L 115.08529,399.42447 C 115.08529,406.10478 109.61915,411.56977 102.93999,411.56977 L 73.643892,411.56977 C 66.964762,411.56977 61.498592,406.10481 61.498592,399.42447 L 61.498592,387.27917 L 61.498692,387.27917 z " id="path1450" style="fill:#4d5356;fill-rule:evenodd"/><polygon class="fil4" points="65.6126,318.689 114.917,318.689 114.917,328.665 114.902,329.206 114.863,329.712 114.8,330.209 114.712,330.7 114.6,331.181 114.465,331.654 114.307,332.118 114.128,332.571 113.927,333.013 113.706,333.444 113.464,333.863 113.203,334.27 112.923,334.663 112.624,335.042 112.309,335.406 111.976,335.756 111.627,336.087 111.262,336.404 110.884,336.702 110.49,336.983 110.083,337.244 109.664,337.485 109.233,337.707 108.791,337.907 108.338,338.087 107.875,338.244 107.401,338.38 106.919,338.492 106.43,338.58 105.932,338.643 105.425,338.682 104.884,338.696 75.6449,338.696 75.1039,338.682 74.5984,338.643 74.1,338.58 73.6098,338.492 73.1291,338.38 72.6555,338.244 72.1913,338.087 71.739,337.907 71.2972,337.707 70.8661,337.485 70.4457,337.244 70.0394,336.983 69.6461,336.702 69.2669,336.404 68.9031,336.087 68.5535,335.756 68.2217,335.407 67.9063,335.042 67.6075,334.663 67.3276,334.27 67.0665,333.863 66.8244,333.444 66.6024,333.013 66.4016,332.571 66.2232,332.118 66.065,331.655 65.9303,331.181 65.8181,330.699 65.7295,330.209 65.6657,329.711 65.6268,329.205 65.6126,328.664 65.6126,318.689 " id="polygon1452" style="fill:url(#linearGradient3195);fill-rule:evenodd" transform="translate(-1.972608,70.73212)"/><path class="fil0" d="M 69.240792,458.03817 L 107.49549,458.03817 L 107.49549,465.824 C 107.49549,470.10668 103.99116,473.60983 99.709661,473.60983 L 77.026562,473.60983 C 72.745062,473.60983 69.240732,470.10668 69.240732,465.824 L 69.240732,458.03817 L 69.240792,458.03817 z " id="path1454" style="fill:#4d5356;fill-rule:evenodd"/><polygon class="fil5" points="72.9272,389.019 107.754,389.019 107.754,395.07 107.747,395.404 107.724,395.711 107.685,396.012 107.631,396.311 107.563,396.602 107.481,396.889 107.386,397.169 107.276,397.446 107.154,397.714 107.021,397.975 106.873,398.23 106.715,398.477 106.545,398.715 106.364,398.946 106.172,399.167 105.97,399.379 105.758,399.581 105.536,399.772 105.306,399.954 105.067,400.124 104.82,400.283 104.565,400.429 104.304,400.565 104.035,400.687 103.761,400.795 103.48,400.891 103.193,400.972 102.901,401.041 102.604,401.094 102.3,401.133 101.994,401.157 101.66,401.165 79.0217,401.165 78.6886,401.157 78.3827,401.133 78.0791,401.094 77.7815,401.041 77.4898,400.972 77.2028,400.891 76.9217,400.795 76.6465,400.687 76.3795,400.565 76.1173,400.429 75.8622,400.283 75.6154,400.124 75.3768,399.954 75.1465,399.772 74.9244,399.58 74.713,399.379 74.511,399.168 74.3197,398.946 74.1378,398.714 73.9677,398.477 73.8094,398.23 73.6618,397.975 73.5272,397.713 73.4055,397.444 73.2969,397.17 73.2012,396.889 73.1185,396.601 73.0512,396.309 72.998,396.012 72.9591,395.709 72.9354,395.404 72.9272,395.07 72.9272,389.019 " id="polygon1456" style="fill:url(#linearGradient3197);fill-opacity:1;fill-rule:evenodd" transform="translate(-1.972608,70.73212)"/></g><g id="g2190" transform="translate(-3.664144,22.35375)"><g id="g1603" style="fill-rule:evenodd" transform="translate(118.5123,-24.88311)">
   <path id="path1605" class="fil0" d="M 33.7807,178.239 L 35.11062,178.239 C 38.24763,178.239 40.81298,180.80435 40.81298,183.94136 L 40.81298,206.30556 C 40.81298,209.44257 38.24644,212.0091 35.11062,212.0091 L 33.7807,212.0091 C 30.64487,212.0091 28.07834,209.44256 28.07834,206.30556 L 28.07834,183.94136 C 28.07834,180.80435 30.64488,178.239 33.7807,178.239 z " style="fill:#373d40"/>
   <polygon id="polygon1607" class="fil2" points="33.8138,179.523 35.0776,179.523 35.5606,179.548 35.9965,179.615 36.4181,179.725 36.822,179.872 37.2083,180.059 37.572,180.281 37.9134,180.537 38.2287,180.823 38.5157,181.139 38.7709,181.48 38.9929,181.845 39.1795,182.23 39.3283,182.634 39.437,183.056 39.5043,183.491 39.528,183.973 39.528,206.274 39.5043,206.757 39.437,207.193 39.3283,207.614 39.1795,208.018 38.9929,208.404 38.7709,208.768 38.5157,209.109 38.2287,209.425 37.9134,209.711 37.572,209.967 37.2083,210.189 36.822,210.374 36.4181,210.523 35.9976,210.633 35.5618,210.699 35.0787,210.724 33.8138,210.724 33.3307,210.699 32.8949,210.633 32.4744,210.523 32.0693,210.374 31.6843,210.189 31.3205,209.967 30.9791,209.711 30.6626,209.424 30.3768,209.109 30.1217,208.768 29.8996,208.403 29.713,208.018 29.5642,207.614 29.4555,207.193 29.3882,206.757 29.3634,206.274 29.3634,183.974 29.3882,183.491 29.4555,183.056 29.5642,182.634 29.713,182.23 29.8996,181.845 30.1217,181.48 30.3768,181.139 30.6626,180.823 30.978,180.537 31.3193,180.281 31.6843,180.059 32.0693,179.872 32.4744,179.724 32.8949,179.615 33.3319,179.548 33.8138,179.523 " style="fill:url(#linearGradient2243)"/>
   <polygon id="polygon1609" class="fil0" points="28.6287,182.348 38.5157,179.857 38.5157,180.522 28.7858,182.974 28.6287,182.348 " style="fill:#373d40"/>
   <polygon id="polygon1611" class="fil0" points="28.6287,188.304 40.1846,185.393 40.3406,186.018 28.7858,188.929 28.6287,188.304 " style="fill:#373d40"/>
   <polygon id="polygon1613" class="fil0" points="28.6287,185.329 40.1846,182.418 40.3406,183.043 28.7858,185.955 28.6287,185.329 " style="fill:#373d40"/>
   <polygon id="polygon1615" class="fil0" points="28.6287,200.494 40.1846,197.583 40.3406,198.208 28.7858,201.12 28.6287,200.494 " style="fill:#373d40"/>
   <polygon id="polygon1617" class="fil0" points="28.6287,203.446 40.1846,200.533 40.3406,201.159 28.7858,204.071 28.6287,203.446 " style="fill:#373d40"/>
   <polygon id="polygon1619" class="fil0" points="28.6287,194.35 40.1846,191.439 40.3406,192.064 28.7858,194.975 28.6287,194.35 " style="fill:#373d40"/>
   <polygon id="polygon1621" class="fil0" points="28.6287,197.415 40.1846,194.504 40.3406,195.129 28.7858,198.04 28.6287,197.415 " style="fill:#373d40"/>
   <polygon id="polygon1623" class="fil0" points="28.6287,191.385 40.1846,188.473 40.3406,189.098 28.7858,192.009 28.6287,191.385 " style="fill:#373d40"/>
  </g><path class="fil4" d="M 152.29306,153.35588 L 153.62298,153.35588 C 156.75999,153.35588 159.32534,155.92123 159.32534,159.05824 L 159.32534,181.42244 C 159.32534,184.55945 156.7588,187.12598 153.62298,187.12598 L 152.29306,187.12598 C 149.15723,187.12598 146.5907,184.55944 146.5907,181.42244 L 146.5907,159.05824 C 146.5907,155.92123 149.15724,153.35588 152.29306,153.35588 z " id="path1625" style="fill:#4d5356;fill-rule:evenodd"/><polygon class="fil2" points="33.8138,179.523 35.0776,179.523 35.5606,179.548 35.9965,179.615 36.4181,179.725 36.822,179.872 37.2083,180.059 37.572,180.281 37.9134,180.537 38.2287,180.823 38.5157,181.139 38.7709,181.48 38.9929,181.845 39.1795,182.23 39.3283,182.634 39.437,183.056 39.5043,183.491 39.528,183.973 39.528,206.274 39.5043,206.757 39.437,207.193 39.3283,207.614 39.1795,208.018 38.9929,208.404 38.7709,208.768 38.5157,209.109 38.2287,209.425 37.9134,209.711 37.572,209.967 37.2083,210.189 36.822,210.374 36.4181,210.523 35.9976,210.633 35.5618,210.699 35.0787,210.724 33.8138,210.724 33.3307,210.699 32.8949,210.633 32.4744,210.523 32.0693,210.374 31.6843,210.189 31.3205,209.967 30.9791,209.711 30.6626,209.424 30.3768,209.109 30.1217,208.768 29.8996,208.403 29.713,208.018 29.5642,207.614 29.4555,207.193 29.3882,206.757 29.3634,206.274 29.3634,183.974 29.3882,183.491 29.4555,183.056 29.5642,182.634 29.713,182.23 29.8996,181.845 30.1217,181.48 30.3768,181.139 30.6626,180.823 30.978,180.537 31.3193,180.281 31.6843,180.059 32.0693,179.872 32.4744,179.724 32.8949,179.615 33.3319,179.548 33.8138,179.523 " id="polygon1627" style="fill:url(#linearGradient2245);fill-rule:evenodd" transform="translate(118.5123,-24.88311)"/><polygon class="fil4" points="28.6287,182.348 38.5157,179.857 38.5157,180.522 28.7858,182.974 28.6287,182.348 " id="polygon1629" style="fill:#4d5356;fill-rule:evenodd" transform="translate(118.5123,-24.88311)"/><polygon class="fil4" points="28.6287,188.304 40.1846,185.393 40.3406,186.018 28.7858,188.929 28.6287,188.304 " id="polygon1631" style="fill:#4d5356;fill-rule:evenodd" transform="translate(118.5123,-24.88311)"/><polygon class="fil4" points="28.6287,185.329 40.1846,182.418 40.3406,183.043 28.7858,185.955 28.6287,185.329 " id="polygon1633" style="fill:#4d5356;fill-rule:evenodd" transform="translate(118.5123,-24.88311)"/><polygon class="fil4" points="28.6287,200.494 40.1846,197.583 40.3406,198.208 28.7858,201.12 28.6287,200.494 " id="polygon1635" style="fill:#4d5356;fill-rule:evenodd" transform="translate(118.5123,-24.88311)"/><polygon class="fil4" points="28.6287,203.446 40.1846,200.533 40.3406,201.159 28.7858,204.071 28.6287,203.446 " id="polygon1637" style="fill:#4d5356;fill-rule:evenodd" transform="translate(118.5123,-24.88311)"/><polygon class="fil4" points="28.6287,194.35 40.1846,191.439 40.3406,192.064 28.7858,194.975 28.6287,194.35 " id="polygon1639" style="fill:#4d5356;fill-rule:evenodd" transform="translate(118.5123,-24.88311)"/><polygon class="fil4" points="28.6287,197.415 40.1846,194.504 40.3406,195.129 28.7858,198.04 28.6287,197.415 " id="polygon1641" style="fill:#4d5356;fill-rule:evenodd" transform="translate(118.5123,-24.88311)"/><polygon class="fil4" points="28.6287,191.385 40.1846,188.473 40.3406,189.098 28.7858,192.009 28.6287,191.385 " id="polygon1643" style="fill:#4d5356;fill-rule:evenodd" transform="translate(118.5123,-24.88311)"/><path class="fil0" d="M 62.647391,146.7229 L 130.83129,146.7229 C 132.19664,146.7229 133.31279,147.83904 133.31279,149.2044 L 133.31279,191.0036 C 133.31279,192.36777 132.19665,193.4851 130.83129,193.4851 L 62.647391,193.4851 C 61.282041,193.4851 60.164711,192.36778 60.164711,191.0036 L 60.164711,149.2044 C 60.164711,147.83905 61.282031,146.7229 62.647391,146.7229 z " id="path1455" style="fill:#373d40;fill-rule:evenodd"/><polygon class="fil1" points="56.3799,173.369 123.96,173.369 123.96,214.564 56.3799,214.564 56.3799,173.369 " id="polygon1457" style="fill:url(#linearGradient2247);fill-rule:evenodd" transform="translate(6.568688,-23.86209)"/><g id="_129146408" style="fill-rule:evenodd" transform="translate(6.568688,-23.86209)">
   <path id="_129164008" class="fil0" d="M 33.7807,178.239 L 35.11062,178.239 C 38.24763,178.239 40.81298,180.80435 40.81298,183.94136 L 40.81298,206.30556 C 40.81298,209.44257 38.24644,212.0091 35.11062,212.0091 L 33.7807,212.0091 C 30.64487,212.0091 28.07834,209.44256 28.07834,206.30556 L 28.07834,183.94136 C 28.07834,180.80435 30.64488,178.239 33.7807,178.239 z " style="fill:#373d40"/>
   <polygon id="_129163696" class="fil2" points="33.8138,179.523 35.0776,179.523 35.5606,179.548 35.9965,179.615 36.4181,179.725 36.822,179.872 37.2083,180.059 37.572,180.281 37.9134,180.537 38.2287,180.823 38.5157,181.139 38.7709,181.48 38.9929,181.845 39.1795,182.23 39.3283,182.634 39.437,183.056 39.5043,183.491 39.528,183.973 39.528,206.274 39.5043,206.757 39.437,207.193 39.3283,207.614 39.1795,208.018 38.9929,208.404 38.7709,208.768 38.5157,209.109 38.2287,209.425 37.9134,209.711 37.572,209.967 37.2083,210.189 36.822,210.374 36.4181,210.523 35.9976,210.633 35.5618,210.699 35.0787,210.724 33.8138,210.724 33.3307,210.699 32.8949,210.633 32.4744,210.523 32.0693,210.374 31.6843,210.189 31.3205,209.967 30.9791,209.711 30.6626,209.424 30.3768,209.109 30.1217,208.768 29.8996,208.403 29.713,208.018 29.5642,207.614 29.4555,207.193 29.3882,206.757 29.3634,206.274 29.3634,183.974 29.3882,183.491 29.4555,183.056 29.5642,182.634 29.713,182.23 29.8996,181.845 30.1217,181.48 30.3768,181.139 30.6626,180.823 30.978,180.537 31.3193,180.281 31.6843,180.059 32.0693,179.872 32.4744,179.724 32.8949,179.615 33.3319,179.548 33.8138,179.523 " style="fill:url(#linearGradient2249)"/>
   <polygon id="_129163384" class="fil0" points="28.6287,182.348 38.5157,179.857 38.5157,180.522 28.7858,182.974 28.6287,182.348 " style="fill:#373d40"/>
   <polygon id="_129163072" class="fil0" points="28.6287,188.304 40.1846,185.393 40.3406,186.018 28.7858,188.929 28.6287,188.304 " style="fill:#373d40"/>
   <polygon id="_129162760" class="fil0" points="28.6287,185.329 40.1846,182.418 40.3406,183.043 28.7858,185.955 28.6287,185.329 " style="fill:#373d40"/>
   <polygon id="_129162448" class="fil0" points="28.6287,200.494 40.1846,197.583 40.3406,198.208 28.7858,201.12 28.6287,200.494 " style="fill:#373d40"/>
   <polygon id="_129162136" class="fil0" points="28.6287,203.446 40.1846,200.533 40.3406,201.159 28.7858,204.071 28.6287,203.446 " style="fill:#373d40"/>
   <polygon id="_129161824" class="fil0" points="28.6287,194.35 40.1846,191.439 40.3406,192.064 28.7858,194.975 28.6287,194.35 " style="fill:#373d40"/>
   <polygon id="_129161512" class="fil0" points="28.6287,197.415 40.1846,194.504 40.3406,195.129 28.7858,198.04 28.6287,197.415 " style="fill:#373d40"/>
   <polygon id="_129146600" class="fil0" points="28.6287,191.385 40.1846,188.473 40.3406,189.098 28.7858,192.009 28.6287,191.385 " style="fill:#373d40"/>
  </g><g id="_129117760" style="fill-rule:evenodd" transform="translate(6.568688,-23.86209)">
   <path id="_128970616" class="fil0" d="M 9.18543,205.131 L 171.08543,205.131 L 171.08543,205.131 L 171.08543,205.131 L 171.08543,292.7216 L 171.07244,292.73459 C 163.99291,300.51333 157.49214,306.47199 149.92124,310.95899 C 132.01924,322.27869 110.65434,323.25779 90.124338,322.84679 C 69.609738,323.25664 48.257838,322.27632 30.366438,310.96849 C 22.783758,306.47794 16.275838,300.51219 9.1857379,292.72159 L 9.1857379,292.72159 L 9.1857379,292.72159 L 9.1857379,205.13099 L 9.18543,205.131 z " style="fill:#373d40"/>
   <polygon id="_129309568" class="fil3" points="166.754,292.676 166.113,293.355 165.475,294.022 164.839,294.679 164.206,295.325 163.574,295.961 162.946,296.585 162.318,297.2 161.692,297.802 161.066,298.395 160.441,298.977 159.816,299.55 159.191,300.111 158.567,300.663 157.942,301.205 157.315,301.736 156.687,302.258 156.059,302.77 155.428,303.273 154.796,303.765 154.161,304.248 153.522,304.723 152.883,305.189 152.238,305.644 151.591,306.091 150.938,306.529 150.282,306.958 149.621,307.38 148.955,307.792 148.257,308.212 146.601,309.223 144.978,310.147 143.336,311.016 141.677,311.835 139.998,312.601 138.302,313.319 136.59,313.99 134.861,314.615 133.116,315.195 131.355,315.731 129.58,316.226 127.789,316.682 125.987,317.098 124.172,317.477 122.343,317.82 120.504,318.13 118.656,318.406 116.797,318.651 114.928,318.866 113.052,319.052 111.168,319.212 109.277,319.346 107.381,319.457 105.48,319.546 103.574,319.613 101.666,319.662 99.7547,319.693 97.8413,319.707 95.928,319.707 94.0134,319.694 92.1,319.67 90.124,319.635 88.1504,319.67 86.2382,319.694 84.326,319.706 82.4138,319.706 80.5016,319.691 78.5917,319.661 76.6843,319.612 74.7803,319.545 72.8811,319.456 70.9854,319.345 69.0969,319.211 67.2142,319.051 65.3386,318.865 63.4713,318.65 61.6134,318.405 59.765,318.13 57.9272,317.82 56.1012,317.477 54.2858,317.099 52.4846,316.683 50.6965,316.227 48.9224,315.733 47.1626,315.197 45.4181,314.617 43.6902,313.994 41.9787,313.324 40.2839,312.606 38.6067,311.841 36.9472,311.023 35.3067,310.154 33.685,309.231 32.0303,308.222 31.3311,307.801 30.6638,307.389 30.0012,306.967 29.3445,306.539 28.6925,306.099 28.0429,305.653 27.398,305.196 26.7567,304.73 26.1177,304.256 25.4823,303.771 24.848,303.278 24.2161,302.774 23.5878,302.262 22.9594,301.74 22.3311,301.206 21.7051,300.665 21.0803,300.113 20.4543,299.55 19.8295,298.977 19.2035,298.394 18.5776,297.801 17.9492,297.196 17.3209,296.582 16.6902,295.956 16.0594,295.32 15.4252,294.673 14.7886,294.015 14.1496,293.347 13.5083,292.667 12.8622,291.974 12.398,291.472 12.398,291.391 12.3969,291.391 12.3969,208.343 167.874,208.343 167.874,208.344 167.874,208.344 167.874,291.472 167.398,291.986 166.754,292.676 " style="fill:url(#linearGradient2251)"/>
  </g><path class="fil4" d="M 62.647391,146.7229 L 130.83129,146.7229 C 132.19664,146.7229 133.31279,147.83904 133.31279,149.2044 L 133.31279,191.0036 C 133.31279,192.36777 132.19665,193.4851 130.83129,193.4851 L 62.647391,193.4851 C 61.282041,193.4851 60.164711,192.36778 60.164711,191.0036 L 60.164711,149.2044 C 60.164711,147.83905 61.282031,146.7229 62.647391,146.7229 z " id="path1484" style="fill:#4d5356;fill-rule:evenodd"/><polygon class="fil1" points="56.3799,173.369 123.96,173.369 123.96,214.564 56.3799,214.564 56.3799,173.369 " id="polygon1486" style="fill:url(#linearGradient2253);fill-rule:evenodd" transform="translate(6.568688,-23.86209)"/><path class="fil4" d="M 40.349391,154.3769 L 41.679311,154.3769 C 44.816321,154.3769 47.381671,156.94225 47.381671,160.07926 L 47.381671,182.44346 C 47.381671,185.58047 44.815131,188.147 41.679311,188.147 L 40.349391,188.147 C 37.213561,188.147 34.647031,185.58046 34.647031,182.44346 L 34.647031,160.07926 C 34.647031,156.94225 37.213571,154.3769 40.349391,154.3769 z " id="path1488" style="fill:#4d5356;fill-rule:evenodd"/><polygon class="fil2" points="33.8138,179.523 35.0776,179.523 35.5606,179.548 35.9965,179.615 36.4181,179.725 36.822,179.872 37.2083,180.059 37.572,180.281 37.9134,180.537 38.2287,180.823 38.5157,181.139 38.7709,181.48 38.9929,181.845 39.1795,182.23 39.3283,182.634 39.437,183.056 39.5043,183.491 39.528,183.973 39.528,206.274 39.5043,206.757 39.437,207.193 39.3283,207.614 39.1795,208.018 38.9929,208.404 38.7709,208.768 38.5157,209.109 38.2287,209.425 37.9134,209.711 37.572,209.967 37.2083,210.189 36.822,210.374 36.4181,210.523 35.9976,210.633 35.5618,210.699 35.0787,210.724 33.8138,210.724 33.3307,210.699 32.8949,210.633 32.4744,210.523 32.0693,210.374 31.6843,210.189 31.3205,209.967 30.9791,209.711 30.6626,209.424 30.3768,209.109 30.1217,208.768 29.8996,208.403 29.713,208.018 29.5642,207.614 29.4555,207.193 29.3882,206.757 29.3634,206.274 29.3634,183.974 29.3882,183.491 29.4555,183.056 29.5642,182.634 29.713,182.23 29.8996,181.845 30.1217,181.48 30.3768,181.139 30.6626,180.823 30.978,180.537 31.3193,180.281 31.6843,180.059 32.0693,179.872 32.4744,179.724 32.8949,179.615 33.3319,179.548 33.8138,179.523 " id="polygon1490" style="fill:url(#linearGradient2255);fill-rule:evenodd" transform="translate(6.568688,-23.86209)"/><polygon class="fil4" points="28.6287,182.348 38.5157,179.857 38.5157,180.522 28.7858,182.974 28.6287,182.348 " id="polygon1492" style="fill:#4d5356;fill-rule:evenodd" transform="translate(6.568688,-23.86209)"/><polygon class="fil4" points="28.6287,188.304 40.1846,185.393 40.3406,186.018 28.7858,188.929 28.6287,188.304 " id="polygon1494" style="fill:#4d5356;fill-rule:evenodd" transform="translate(6.568688,-23.86209)"/><polygon class="fil4" points="28.6287,185.329 40.1846,182.418 40.3406,183.043 28.7858,185.955 28.6287,185.329 " id="polygon1496" style="fill:#4d5356;fill-rule:evenodd" transform="translate(6.568688,-23.86209)"/><polygon class="fil4" points="28.6287,200.494 40.1846,197.583 40.3406,198.208 28.7858,201.12 28.6287,200.494 " id="polygon1498" style="fill:#4d5356;fill-rule:evenodd" transform="translate(6.568688,-23.86209)"/><polygon class="fil4" points="28.6287,203.446 40.1846,200.533 40.3406,201.159 28.7858,204.071 28.6287,203.446 " id="polygon1500" style="fill:#4d5356;fill-rule:evenodd" transform="translate(6.568688,-23.86209)"/><polygon class="fil4" points="28.6287,194.35 40.1846,191.439 40.3406,192.064 28.7858,194.975 28.6287,194.35 " id="polygon1502" style="fill:#4d5356;fill-rule:evenodd" transform="translate(6.568688,-23.86209)"/><polygon class="fil4" points="28.6287,197.415 40.1846,194.504 40.3406,195.129 28.7858,198.04 28.6287,197.415 " id="polygon1504" style="fill:#4d5356;fill-rule:evenodd" transform="translate(6.568688,-23.86209)"/><polygon class="fil4" points="28.6287,191.385 40.1846,188.473 40.3406,189.098 28.7858,192.009 28.6287,191.385 " id="polygon1506" style="fill:#4d5356;fill-rule:evenodd" transform="translate(6.568688,-23.86209)"/><path class="fil4" d="M 15.754121,181.2689 L 177.65412,181.2689 L 177.65412,181.2689 L 177.65412,181.2689 L 177.65412,268.8595 L 177.64113,268.87249 C 170.5616,276.65123 164.06083,282.60989 156.48993,287.09689 C 138.58793,298.41659 117.22303,299.39569 96.693028,298.98469 C 76.178429,299.39454 54.826529,298.41422 36.935129,287.10639 C 29.352449,282.61584 22.844529,276.65009 15.754429,268.85949 L 15.754429,268.85949 L 15.754429,268.85949 L 15.754429,181.26889 L 15.754121,181.2689 z " id="path1528" style="fill:#4d5356;fill-rule:evenodd"/><polygon class="fil3" points="166.754,292.676 166.113,293.355 165.475,294.022 164.839,294.679 164.206,295.325 163.574,295.961 162.946,296.585 162.318,297.2 161.692,297.802 161.066,298.395 160.441,298.977 159.816,299.55 159.191,300.111 158.567,300.663 157.942,301.205 157.315,301.736 156.687,302.258 156.059,302.77 155.428,303.273 154.796,303.765 154.161,304.248 153.522,304.723 152.883,305.189 152.238,305.644 151.591,306.091 150.938,306.529 150.282,306.958 149.621,307.38 148.955,307.792 148.257,308.212 146.601,309.223 144.978,310.147 143.336,311.016 141.677,311.835 139.998,312.601 138.302,313.319 136.59,313.99 134.861,314.615 133.116,315.195 131.355,315.731 129.58,316.226 127.789,316.682 125.987,317.098 124.172,317.477 122.343,317.82 120.504,318.13 118.656,318.406 116.797,318.651 114.928,318.866 113.052,319.052 111.168,319.212 109.277,319.346 107.381,319.457 105.48,319.546 103.574,319.613 101.666,319.662 99.7547,319.693 97.8413,319.707 95.928,319.707 94.0134,319.694 92.1,319.67 90.124,319.635 88.1504,319.67 86.2382,319.694 84.326,319.706 82.4138,319.706 80.5016,319.691 78.5917,319.661 76.6843,319.612 74.7803,319.545 72.8811,319.456 70.9854,319.345 69.0969,319.211 67.2142,319.051 65.3386,318.865 63.4713,318.65 61.6134,318.405 59.765,318.13 57.9272,317.82 56.1012,317.477 54.2858,317.099 52.4846,316.683 50.6965,316.227 48.9224,315.733 47.1626,315.197 45.4181,314.617 43.6902,313.994 41.9787,313.324 40.2839,312.606 38.6067,311.841 36.9472,311.023 35.3067,310.154 33.685,309.231 32.0303,308.222 31.3311,307.801 30.6638,307.389 30.0012,306.967 29.3445,306.539 28.6925,306.099 28.0429,305.653 27.398,305.196 26.7567,304.73 26.1177,304.256 25.4823,303.771 24.848,303.278 24.2161,302.774 23.5878,302.262 22.9594,301.74 22.3311,301.206 21.7051,300.665 21.0803,300.113 20.4543,299.55 19.8295,298.977 19.2035,298.394 18.5776,297.801 17.9492,297.196 17.3209,296.582 16.6902,295.956 16.0594,295.32 15.4252,294.673 14.7886,294.015 14.1496,293.347 13.5083,292.667 12.8622,291.974 12.398,291.472 12.398,291.391 12.3969,291.391 12.3969,208.343 167.874,208.343 167.874,208.344 167.874,208.344 167.874,291.472 167.398,291.986 166.754,292.676 " id="polygon1530" style="fill:url(#linearGradient2257);fill-rule:evenodd" transform="translate(6.568688,-23.86209)"/></g></svg>