<?xml version="1.0" encoding="UTF-8" standalone="no"?>
<svg
   xmlns:dc="http://purl.org/dc/elements/1.1/"
   xmlns:cc="http://creativecommons.org/ns#"
   xmlns:rdf="http://www.w3.org/1999/02/22-rdf-syntax-ns#"
   xmlns:svg="http://www.w3.org/2000/svg"
   xmlns="http://www.w3.org/2000/svg"
   xmlns:sodipodi="http://sodipodi.sourceforge.net/DTD/sodipodi-0.dtd"
   xmlns:inkscape="http://www.inkscape.org/namespaces/inkscape"
   height="3.523cm"
   width="10cm"
   version="1.1"
   y="0px"
   x="0px"
   viewBox="0 0 354.3307 124.83071"
   id="svg2"
   inkscape:version="0.91 r13725"
   sodipodi:docname="CC_BY_SA.svg"
   inkscape:export-filename="/home/nek0/Seafile/workspace/c3d2/hackerpass/images/CC_BY_SA.png"
   inkscape:export-xdpi="299.92618"
   inkscape:export-ydpi="299.92618">
  <metadata
     id="metadata18">
    <rdf:RDF>
      <cc:Work
         rdf:about="">
        <dc:format>image/svg+xml</dc:format>
        <dc:type
           rdf:resource="http://purl.org/dc/dcmitype/StillImage" />
        <dc:title>Creative Commons “Attribution-Share Alike” license icon</dc:title>
      </cc:Work>
    </rdf:RDF>
  </metadata>
  <defs
     id="defs16" />
  <sodipodi:namedview
     pagecolor="#ffffff"
     bordercolor="#666666"
     borderopacity="1"
     objecttolerance="10"
     gridtolerance="10"
     guidetolerance="10"
     inkscape:pageopacity="0"
     inkscape:pageshadow="2"
     inkscape:window-width="1680"
     inkscape:window-height="973"
     id="namedview14"
     showgrid="false"
     units="cm"
     inkscape:zoom="5.1477273"
     inkscape:cx="277.59823"
     inkscape:cy="89.124724"
     inkscape:window-x="0"
     inkscape:window-y="25"
     inkscape:window-maximized="1"
     inkscape:current-layer="svg2" />
  <title
     id="title4">Creative Commons “Attribution-Share Alike” license icon</title>
  <path
     d="m 10.062187,1.4269822 334.709643,0.59592 c 4.67475,0 8.85022,-0.696582 8.85022,9.3937898 l -0.4107,110.937728 -351.5967294,0 0,-111.352456 c 0,-4.9727088 0.4791518,-9.5749818 8.4475664,-9.5749818 z"
     id="path6"
     inkscape:connector-curvature="0"
     style="fill:#aab2ab" />
  <path
     d="M 101.9345,58.188349 C 101.94658,80.563528 83.932087,98.714924 61.697835,98.73103 39.463583,98.743109 21.428955,80.611846 21.412849,58.236667 l 0,-0.04832 c -0.01208,-22.379209 18.002416,-40.530605 40.240694,-40.542684 22.234252,-0.01611 40.268877,18.119184 40.284987,40.494366 -0.004,0.01208 -0.004,0.02819 -0.004,0.04832 z M 187.08661,13.32122 c 17.51119,0 31.70858,14.28597 31.70858,31.909899 0,17.623927 -14.19739,31.913923 -31.70858,31.913923 -17.51521,0 -31.70857,-14.28597 -31.70857,-31.913923 -0.004,-17.623929 14.19336,-31.909899 31.70857,-31.909899 z m 115.28633,31.209291 c 0.0121,17.370258 -13.9719,31.462956 -31.23344,31.479062 -17.25752,0.01208 -31.26566,-14.060486 -31.28177,-31.430744 l 0,-0.04832 c -0.008,-17.370261 13.97593,-31.46296 31.23747,-31.475039 17.26155,-0.01208 31.26566,14.060486 31.27774,31.430748 l 0,0.04429 z"
     id="path8"
     inkscape:connector-curvature="0"
     style="fill:#ffffff" />
  <path
     d="m 94.404975,25.183245 c 8.926715,8.987116 13.392095,19.987477 13.392095,33.005104 0,13.017627 -4.38485,23.901217 -13.162585,32.654796 -9.313261,9.216625 -20.317645,13.826955 -33.01718,13.826955 -12.546528,0 -23.361668,-4.57006 -32.441392,-13.710187 -9.083751,-9.144148 -13.6216,-20.05995 -13.6216,-32.767537 0,-12.707588 4.537849,-23.711976 13.6216,-33.009131 8.850214,-8.987115 19.665354,-13.480672 32.441392,-13.480672 12.933071,0 23.860952,4.493557 32.78767,13.480672 z M 35.187455,31.227 c -7.54966,7.670454 -11.322476,16.6616 -11.322476,26.969402 0,10.311829 3.736578,19.218415 11.205708,26.735863 7.46913,7.517448 16.363637,11.278185 26.683518,11.278185 10.319882,0 19.290892,-3.792949 26.913028,-11.390927 7.235594,-7.054402 10.859431,-15.924749 10.859431,-26.619094 0,-10.613816 -3.680207,-19.625093 -11.03257,-27.025773 -7.352362,-7.40068 -16.267,-11.10102 -26.739889,-11.10102 -10.472888,0 -19.331156,3.716445 -26.56675,11.153364 z m 19.862652,22.43558 c -1.155601,-2.528633 -2.878937,-3.792949 -5.182086,-3.792949 -4.070777,0 -6.104152,2.758142 -6.104152,8.2704 0,5.516285 2.033375,8.274428 6.104152,8.274428 2.685665,0 4.610325,-1.34082 5.7619,-4.034539 l 5.641106,3.023891 c -2.689692,4.807623 -6.72423,7.215462 -12.103615,7.215462 -4.14728,0 -7.473156,-1.276396 -9.969577,-3.841267 -2.500448,-2.560845 -3.748658,-6.088046 -3.748658,-10.58563 0,-4.425108 1.288475,-7.932176 3.861399,-10.533286 2.572924,-2.601109 5.782033,-3.897638 9.6233,-3.897638 5.689424,0 9.760201,2.254832 12.220383,6.760469 l -6.104152,3.140659 z m 26.546618,0 C 80.441124,51.133947 78.75,49.869631 76.519327,49.869631 c -4.151306,0 -6.228973,2.758142 -6.228973,8.2704 0,5.516285 2.077667,8.274428 6.228973,8.274428 2.693719,0 4.578114,-1.34082 5.653186,-4.034539 l 5.769953,3.023891 c -2.685666,4.807623 -6.712151,7.215462 -12.083482,7.215462 -4.143254,0 -7.461078,-1.276396 -9.957499,-3.841267 -2.492394,-2.560845 -3.736578,-6.088046 -3.736578,-10.58563 0,-4.425108 1.264316,-7.932176 3.796976,-10.533286 2.528632,-2.601109 5.749821,-3.897638 9.663564,-3.897638 5.677345,0 9.744095,2.254832 12.196224,6.760469 L 81.596725,53.66258 Z M 347.69909,0.00965925 l -341.0674687,0 C 2.9755727,0.00965925 0,3.0053642 0,6.6855722 L 0,123.32078 c 0,0.83348 0.67242305,1.50993 1.4978525,1.50993 l 351.3350075,0 c 0.82543,0 1.49785,-0.67645 1.49785,-1.50993 l 0,-116.6352078 c 0,-3.680208 -2.97557,-6.67591295 -6.63162,-6.67591295 z M 6.6316213,3.0254972 l 341.0634387,0 c 2.00519,0 3.63592,1.642806 3.63592,3.660075 l 0,80.9685968 -243.76745,0 c -8.934772,16.258951 -26.147997,27.295541 -45.90596,27.295541 -19.76199,0 -36.975215,-11.02451 -45.901933,-27.295541 l -12.7599319,0 0,-80.9685968 c 0,-2.017269 1.6307265,-3.660075 3.6359162,-3.660075 z M 270.88985,10.075872 c -9.48237,0 -17.51118,3.329904 -24.07838,9.989711 -6.74436,6.893342 -10.11453,15.046975 -10.11453,24.468954 0,9.421976 3.37017,17.519238 10.11453,24.295813 6.74034,6.776575 14.76915,10.162849 24.07838,10.162849 9.43003,0 17.59977,-3.418486 24.51727,-10.251432 6.5068,-6.486668 9.77228,-14.559771 9.77228,-24.20723 0,-9.647462 -3.31782,-17.805121 -9.94944,-24.468954 -6.62357,-6.659807 -14.73694,-9.989711 -24.34011,-9.989711 z m 0.0886,6.200788 c 7.77111,0 14.37052,2.758142 19.80225,8.270401 5.48005,5.455887 8.22611,12.119721 8.22611,19.987476 0,7.924124 -2.68164,14.503401 -8.057,19.729779 -5.65721,5.625 -12.31299,8.439513 -19.97136,8.439513 -7.65435,0 -14.25779,-2.782302 -19.79823,-8.350931 -5.54045,-5.572655 -8.31067,-12.176091 -8.31067,-19.814334 0,-7.638246 2.79841,-14.30208 8.39925,-19.987477 5.36328,-5.520311 11.93853,-8.274427 19.70965,-8.274427 z m -15.26441,23.389853 c 1.36901,-8.669023 7.43289,-13.303507 15.03087,-13.303507 10.93593,0 17.59171,7.980494 17.59171,18.626524 0,10.388332 -7.08661,18.457409 -17.76082,18.457409 -7.34431,0 -13.91956,-4.549928 -15.11945,-13.476646 l 8.62875,0 c 0.25367,4.634484 3.24535,6.265211 7.51342,6.265211 4.86803,0 8.02882,-4.549929 8.02882,-11.503669 0,-7.295995 -2.73399,-11.157394 -7.85568,-11.157394 -3.76073,0 -7.00205,1.373031 -7.68656,6.092072 l 2.5085,-0.01208 -6.79268,6.832949 -6.78865,-6.832949 2.70177,0.01208 z m -59.45106,-3.668128 c 0,-1.232105 -0.99051,-2.226646 -2.21456,-2.226646 l -14.00412,0 c -1.22002,0 -2.21457,0.994541 -2.21457,2.226646 l 0,14.092702 3.90972,0 0,16.689782 10.61382,0 0,-16.689782 3.90971,0 0,-14.092702 z m -9.21259,-13.722262 c 2.64137,0 4.78749,2.158196 4.78749,4.819703 0,2.661507 -2.14612,4.819703 -4.78749,4.819703 -2.64541,0 -4.7875,-2.158196 -4.7875,-4.819703 0,-2.661507 2.14209,-4.819703 4.7875,-4.819703 z m -0.0483,-12.200251 c -9.48237,0 -17.51119,3.329904 -24.08241,9.989711 -6.74436,6.889316 -10.11453,15.046975 -10.11453,24.464928 0,9.417949 3.37017,17.519238 10.11453,24.295812 6.74034,6.776575 14.76915,10.162849 24.08241,10.162849 9.43003,0 17.59977,-3.418486 24.51324,-10.255458 6.51888,-6.486668 9.77631,-14.555744 9.77631,-24.207229 0,-9.651489 -3.3138,-17.801096 -9.94542,-24.464929 -6.62357,-6.659807 -14.74096,-9.985684 -24.34413,-9.985684 z m 0.0886,6.196761 c 7.77112,0 14.37053,2.758143 19.79823,8.270401 5.4881,5.455888 8.23014,12.119721 8.23014,19.983451 0,7.924123 -2.68164,14.5034 -8.057,19.729778 -5.65721,5.629026 -12.31299,8.439513 -19.97137,8.439513 -7.65435,0 -14.25778,-2.782301 -19.79823,-8.354957 -5.54447,-5.568629 -8.31469,-12.172065 -8.31469,-19.814334 0,-7.63422 2.79841,-14.298053 8.39925,-19.983451 5.37133,-5.512258 11.94255,-8.270401 19.71367,-8.270401 z"
     id="path10"
     inkscape:connector-curvature="0" />
  <path
     d="m 278.94282,97.333834 7.3121,19.681466 -4.46537,0 -1.47772,-4.38485 -7.3121,0 -1.53409,4.38485 -4.32444,0 7.39262,-19.681466 4.409,0 z m 0.24965,12.067376 -2.46421,-7.21949 -0.0564,0 -2.54877,7.21949 5.06935,0 z m -24.47701,2.74606 c 0.23756,0.46305 0.55163,0.83349 0.9422,1.11534 0.39459,0.28588 0.84959,0.49929 1.37706,0.63619 0.53552,0.1369 1.0791,0.20535 1.6428,0.20535 0.38252,0 0.79322,-0.0322 1.23211,-0.0926 0.43888,-0.0604 0.84556,-0.18925 1.2321,-0.37447 0.37849,-0.18522 0.70061,-0.43486 0.95025,-0.75698 0.2577,-0.32212 0.38655,-0.72879 0.38655,-1.22807 0,-0.5315 -0.16912,-0.95831 -0.50734,-1.29251 -0.3342,-0.33419 -0.78114,-0.60397 -1.32472,-0.82945 -0.5476,-0.22146 -1.16768,-0.4107 -1.85621,-0.57579 -0.69658,-0.16911 -1.40121,-0.35433 -2.10585,-0.55565 -0.73282,-0.18522 -1.44148,-0.41071 -2.13806,-0.67243 -0.68853,-0.26575 -1.30861,-0.61202 -1.85621,-1.03883 -0.55163,-0.41876 -0.99052,-0.94622 -1.32874,-1.58241 -0.3342,-0.63618 -0.50331,-1.40524 -0.50331,-2.30315 0,-1.01467 0.2134,-1.88842 0.64424,-2.63332 0.42278,-0.740874 0.99051,-1.360953 1.68307,-1.860237 0.69255,-0.495258 1.47369,-0.861668 2.35146,-1.103257 0.87375,-0.237563 1.75555,-0.354331 2.62527,-0.354331 1.02273,0 2.00117,0.112742 2.93934,0.346278 0.93414,0.22951 1.77165,0.599946 2.50044,1.115336 0.73283,0.511364 1.31264,1.171708 1.73945,1.972981 0.43083,0.79724 0.64423,1.76762 0.64423,2.91115 l -4.17143,0 c -0.0362,-0.58787 -0.16106,-1.0791 -0.36641,-1.46162 -0.21341,-0.38654 -0.48721,-0.69255 -0.83349,-0.91401 -0.34628,-0.22146 -0.74087,-0.37849 -1.18781,-0.46305 -0.44291,-0.0926 -0.92609,-0.14092 -1.45356,-0.14092 -0.34628,0 -0.69256,0.0403 -1.03883,0.10871 -0.34628,0.0765 -0.65632,0.20535 -0.93415,0.38654 -0.28185,0.18925 -0.51942,0.41876 -0.70061,0.69256 -0.18119,0.2738 -0.26977,0.62411 -0.26977,1.04689 0,0.38654 0.0765,0.7006 0.21743,0.93414 0.14898,0.24562 0.43888,0.46305 0.86569,0.66437 0.42681,0.20133 1.02273,0.40668 1.77568,0.608 0.75698,0.1973 1.7475,0.45499 2.9635,0.76906 0.37043,0.0725 0.87374,0.20535 1.51798,0.40265 0.64826,0.18924 1.28848,0.49526 1.92869,0.92206 0.64021,0.42278 1.19184,0.99052 1.65891,1.69918 0.46304,0.70866 0.69658,1.61059 0.69658,2.71385 0,0.90596 -0.17716,1.73944 -0.52344,2.5085 -0.34628,0.77309 -0.86167,1.43746 -1.54617,1.99714 -0.68853,0.56773 -1.53409,0.99857 -2.54474,1.31263 -1.01468,0.31407 -2.19041,0.46707 -3.51915,0.46707 -1.0791,0 -2.12196,-0.13287 -3.13663,-0.40264 -1.01065,-0.26173 -1.90856,-0.68853 -2.68567,-1.25627 -0.77308,-0.57578 -1.39316,-1.30055 -1.84815,-2.18638 -0.455,-0.8818 -0.67645,-1.92869 -0.65632,-3.14066 l 4.17144,0 c -0.004,0.66437 0.11274,1.22405 0.3503,1.68307 z m -69.60585,-14.813436 4.82373,0 4.58214,7.775146 4.54993,-7.775146 4.79152,0 -7.25976,12.127776 0,7.55369 -4.30834,0 0,-7.66241 -7.17922,-12.019056 z m -7.95231,0 c 0.93012,0 1.77971,0.08456 2.54877,0.249643 0.76906,0.165085 1.42537,0.43486 1.977,0.809323 0.5476,0.37849 0.97038,0.8818 1.27237,1.501879 0.30199,0.624101 0.45097,1.401221 0.45097,2.315231 0,0.99454 -0.22146,1.81594 -0.67243,2.48031 -0.44291,0.66035 -1.11131,1.1999 -1.98505,1.61865 1.20794,0.35433 2.10585,0.96233 2.70579,1.83608 0.59592,0.87777 0.89791,1.92868 0.89791,3.15676 0,0.99052 -0.1973,1.85219 -0.57981,2.58098 -0.38252,0.72477 -0.90194,1.31666 -1.55423,1.77568 -0.64826,0.45902 -1.39316,0.80127 -2.22262,1.02273 -0.83348,0.22145 -1.68709,0.33017 -2.56889,0.33017 l -9.49446,0 0,-19.681462 9.22468,0 0,0.004 z m -0.55163,7.956336 c 0.76906,0 1.39719,-0.18522 1.89245,-0.5476 0.49526,-0.37044 0.7449,-0.96233 0.7449,-1.78776 0,-0.45902 -0.0846,-0.83751 -0.24964,-1.12742 -0.16509,-0.2899 -0.38252,-0.51941 -0.66034,-0.6845 -0.27783,-0.16509 -0.58787,-0.28185 -0.94623,-0.34628 -0.35836,-0.0644 -0.72879,-0.0926 -1.11131,-0.0926 l -4.02648,0 0,4.5902 4.35665,0 z m 0.24964,8.35496 c 0.42279,0 0.82543,-0.0403 1.20795,-0.1208 0.38252,-0.0846 0.72477,-0.22145 1.01467,-0.41875 0.29394,-0.18925 0.52345,-0.45097 0.70061,-0.78114 0.17717,-0.33017 0.26172,-0.75295 0.26172,-1.26834 0,-1.00662 -0.28588,-1.73139 -0.85361,-2.1582 -0.56773,-0.43083 -1.32069,-0.64826 -2.25081,-0.64826 l -4.69488,0 0,5.39951 4.61435,0 z"
     id="path12"
     inkscape:connector-curvature="0"
     style="fill:#ffffff" />
</svg>
