<?xml version="1.0" encoding="windows-1252"?>
<!-- Generator: Adobe Illustrator 13.0.2, SVG Export Plug-In . SVG Version: 6.00 Build 14948)  -->
<!DOCTYPE svg PUBLIC "-//W3C//DTD SVG 1.1//EN" "http://www.w3.org/Graphics/SVG/1.1/DTD/svg11.dtd">
<svg version="1.1" id="Ebene_1" xmlns="http://www.w3.org/2000/svg" xmlns:xlink="http://www.w3.org/1999/xlink" x="0px" y="0px" width="463px" height="736px" viewBox="0 0.0004 463 736" style="enable-background:new 0 0.0004 463 736;" xml:space="preserve">
<g id="klinkenstecker">
	
		<linearGradient id="stecker_2_" gradientUnits="userSpaceOnUse" x1="346.7832" y1="1426.1096" x2="446.877" y2="1426.1096" gradientTransform="matrix(-1 0 0 -1 595.4648 1788.8403)">
		<stop offset="0" style="stop-color:#808080"/>
		<stop offset="0.5" style="stop-color:#BFBFBF"/>
		<stop offset="1" style="stop-color:#808080"/>
	</linearGradient>
	<path id="stecker_1_" style="fill:url(#stecker_2_);" d="M228.7832,202.2795c-2.8164-1.9805-4.2305-6.2734-3.1406-9.5352   l21.0625-63.1992c1.0898-3.2617,0.4375-8.293-1.4453-11.1719l-18.1719-27.793c-1.8828-2.8789-6.2383-5.2383-9.6758-5.2383h-37.543   c-3.4414,0-7.793,2.3594-9.6797,5.2383l-18.1797,27.793c-1.8828,2.8789-2.5312,7.9102-1.4453,11.1719l21.0703,63.1992   c1.0859,3.2617-0.3242,7.5547-3.1367,9.5352l-14.793,10.4062c-2.8164,1.9766-5.1172,6.4102-5.1172,9.8516v411.3271   c0,3.4375,2.8125,6.2539,6.2539,6.2539h87.5859c3.4414,0,6.2539-2.8164,6.2539-6.2539V222.5374   c0-3.4414-2.3008-7.875-5.1172-9.8516L228.7832,202.2795z"/>
	
		<linearGradient id="SVGID_1_" gradientUnits="userSpaceOnUse" x1="312.7676" y1="1277.4944" x2="480.9004" y2="1277.4944" gradientTransform="matrix(-1 0 0 -1 595.4648 1788.8403)">
		<stop offset="0" style="stop-color:#808080"/>
		<stop offset="0.5" style="stop-color:#BFBFBF"/>
		<stop offset="1" style="stop-color:#808080"/>
	</linearGradient>
	<rect x="114.5645" y="492.5061" style="fill:url(#SVGID_1_);" width="168.1328" height="37.6797"/>
	
		<linearGradient id="Ring_1_2_" gradientUnits="userSpaceOnUse" x1="-86.106" y1="808.2151" x2="-86.106" y2="708.1213" gradientTransform="matrix(0 1 -1 0 956.803 314.5051)">
		<stop offset="0" style="stop-color:#333333"/>
		<stop offset="0.5" style="stop-color:#000000"/>
		<stop offset="1" style="stop-color:#333333"/>
	</linearGradient>
	<rect id="Ring_1_1_" x="148.5879" y="219.9397" style="fill:url(#Ring_1_2_);" width="100.0938" height="16.918"/>
	<path id="kabel_1_" style="fill:#1A1A1A;" d="M141.5293,1391.8264c13.3945-99.7852,26.0898-150.7305,26.2148-366.1953l0,0h-0.0117   c0-17.0586,13.8477-30.8906,30.9023-30.8906l0,0c17.0703,0,30.9062,13.8311,30.9062,30.8906l0,0   c0.1172,217.0938-13.668,277.5234-26.7578,374.4414l0,0c-13.0078,96.7344-26.1992,235.7305-26.2148,622.1992l0,0   c0,17.0508-13.832,30.8906-30.8984,30.8906l0,0c-17.0586,0-30.8984-13.8398-30.8984-30.8906l0,0   C114.7637,1634.8303,128.0566,1491.7913,141.5293,1391.8264L141.5293,1391.8264z"/>
	<g id="Gehaeuse_1_">
		
			<linearGradient id="SVGID_2_" gradientUnits="userSpaceOnUse" x1="496.3896" y1="890.2502" x2="496.3896" y2="626.0979" gradientTransform="matrix(0 1 -1 0 956.803 314.5051)">
			<stop offset="0" style="stop-color:#333333"/>
			<stop offset="0.5" style="stop-color:#000000"/>
			<stop offset="1" style="stop-color:#333333"/>
		</linearGradient>
		<path style="fill:url(#SVGID_2_);" d="M94.8809,1116.01c-15.5806,0-28.3281-12.748-28.3281-28.3281V534.1077    c0-15.582,12.7476-28.3281,28.3281-28.3281H302.377c15.5801,0,28.3281,12.748,28.3281,28.3281v553.5742    c0,15.5801-12.748,28.3281-28.3281,28.3281H94.8809z"/>
	</g>
	<g id="optische_verbesserung_an_der_spitze">
		<path style="opacity:0.2;fill:#FFFFFF;enable-background:new    ;" d="M225.3262,195.5881h-53.3711    c-0.0859,1.5469-0.6016,3.0898-1.4258,4.4102h56.2148C225.9238,198.678,225.4121,197.135,225.3262,195.5881z"/>
		<path style="opacity:0.2;fill:#FFFFFF;enable-background:new    ;" d="M150.4707,122.4905    c-0.3164,1.4609-0.4922,2.9727-0.3867,4.4141h97.1055c0.1016-1.4414-0.0742-2.9531-0.3906-4.4141H150.4707z"/>
	</g>
	
		<rect id="optische_verbesserung_1_" x="148.5879" y="490.5334" style="fill:#FFFFFF;fill-opacity:0.42;" width="100.0938" height="1.9727"/>
</g>
<g id="Legende">
	<g id="_x32__Gnd_2_">
		<g style="opacity:0.16;">
			<path d="M274.9648,248.6956c2.2871-2.5703,6.9727-4.6738,10.4141-4.6738h38.2266c3.4404,0,9.0713,0,12.5117,0h75.7656     c3.4404,0,6.2559,2.8145,6.2559,6.2559v15.625c0,3.4404,0,9.0703,0,12.5117v15.625c0,3.4404-2.8154,6.2559-6.2559,6.2559     h-75.7656c-3.4404,0-9.0713,0-12.5117,0h-38.2266c-3.4414,0-8.127-2.1035-10.4141-4.6748l-16.7109-18.7881     c-2.2871-2.5703-2.2871-6.7773,0-9.3486L274.9648,248.6956z"/>
		</g>
		<rect x="289.9238" y="251.7444" style="fill:none;" width="122.4805" height="40.8281"/>
		<g style="enable-background:new    ;">
			<path d="M335.375,286.4797v-10.3711h-7.6816v-4.293h12.3359v16.5781c-1.8096,1.4316-3.8105,2.5127-6,3.2451     c-2.1895,0.7334-4.5254,1.0996-7.0078,1.0996c-5.4316,0-9.6777-1.7627-12.7373-5.2891     c-3.0605-3.5254-4.5908-8.4346-4.5908-14.7285c0-6.3105,1.5303-11.2285,4.5908-14.7539     c3.0596-3.5264,7.3057-5.2891,12.7373-5.2891c2.2578,0,4.4092,0.3105,6.4531,0.9307c2.043,0.6211,3.9258,1.5352,5.6504,2.7412     v5.5605c-1.7422-1.6377-3.5908-2.8701-5.5479-3.6982c-1.957-0.8271-4.0127-1.2412-6.168-1.2412     c-4.2412,0-7.4307,1.3193-9.5693,3.957c-2.1377,2.6377-3.207,6.5693-3.207,11.793c0,5.207,1.0693,9.1299,3.207,11.7676     c2.1387,2.6377,5.3281,3.957,9.5693,3.957c1.6729,0,3.1592-0.1592,4.4619-0.4785     C333.1719,287.6477,334.3398,287.1526,335.375,286.4797z"/>
			<path d="M347.6631,253.3762h6.3359l15.4141,32.3018v-32.3018h4.5518v38.6123h-6.3359l-15.4141-32.3018v32.3018h-4.5518V253.3762z     "/>
			<path d="M382.3477,253.3762h9.6465c6.7412,0,11.6855,1.5557,14.832,4.668s4.7197,7.9785,4.7197,14.5996     c0,6.6553-1.582,11.543-4.7451,14.6641c-3.1641,3.1201-8.0996,4.6807-14.8066,4.6807h-9.6465V253.3762z M387.0547,257.6692     v30.0264h5.6641c4.793,0,8.3047-1.207,10.5391-3.6211c2.2324-2.4131,3.3486-6.2236,3.3486-11.4307     c0-5.1729-1.1162-8.9619-3.3486-11.3672c-2.2344-2.4043-5.7461-3.6074-10.5391-3.6074H387.0547z"/>
		</g>
	</g>
	<g id="_x31__Signal_1_">
		<g style="opacity:0.16;">
			<path d="M274.9648,162.5901c2.2871-2.5703,6.9727-4.6738,10.4141-4.6738h38.2266c3.4404,0,9.0713,0,12.5117,0h75.7656     c3.4404,0,6.2559,2.8145,6.2559,6.2559v15.625c0,3.4404,0,9.0703,0,12.5117v15.6289c0,3.4404-2.8154,6.2559-6.2559,6.2559     h-75.7656c-3.4404,0-9.0713,0-12.5117,0h-38.2266c-3.4414,0-8.127-2.1035-10.4131-4.6748l-16.7129-18.792     c-2.2861-2.5703-2.2861-6.7773,0.001-9.3486L274.9648,162.5901z"/>
		</g>
		<rect x="289.9238" y="165.6389" style="fill:none;" width="122.4805" height="40.8281"/>
		<g style="enable-background:new    ;">
			<path d="M360.5391,168.5383v5.0947c-1.7754-0.9482-3.457-1.6553-5.043-2.1211s-3.1123-0.6982-4.5781-0.6982     c-2.5684,0-4.5469,0.5518-5.9355,1.6553c-1.3867,1.1035-2.0811,2.6729-2.0811,4.707c0,1.707,0.4609,2.9961,1.3838,3.8662     c0.9219,0.8711,2.6758,1.5732,5.2627,2.1074l2.8193,0.6475c3.5176,0.7412,6.1074,2.0469,7.7715,3.918s2.4961,4.375,2.4961,7.5127     c0,3.7412-1.125,6.5781-3.375,8.5088s-5.5566,2.8965-9.9189,2.8965c-1.6553,0-3.4092-0.207-5.2627-0.6211     c-1.8535-0.4131-3.7715-1.0254-5.7539-1.8359v-5.3789c1.9131,1.1895,3.7832,2.0859,5.6113,2.6895s3.6289,0.9053,5.4053,0.9053     c2.6729,0,4.7412-0.5859,6.207-1.7588c1.4658-1.1719,2.1982-2.8447,2.1982-5.0176c0-1.8965-0.5254-3.3789-1.5781-4.4482     c-1.0508-1.0684-2.7754-1.8701-5.1719-2.4053l-2.8447-0.6201c-3.5176-0.7764-6.0557-1.9912-7.6162-3.6465     s-2.3408-3.957-2.3408-6.9053c0-3.4141,1.0811-6.1035,3.2451-8.0693s5.1426-2.9482,8.9355-2.9482     c1.6387,0,3.3018,0.1641,4.9922,0.4912C357.0566,167.3918,358.7812,167.8831,360.5391,168.5383z"/>
			<path d="M369.0254,167.2708h4.707v38.6123h-4.707V167.2708z"/>
			<path d="M405.8047,200.3743v-10.3711h-7.6807v-4.293H410.46v16.5781c-1.8096,1.4316-3.8105,2.5127-6,3.2451     c-2.1895,0.7334-4.5264,1.0996-7.0088,1.0996c-5.4307,0-9.6768-1.7627-12.7363-5.2891     c-3.0605-3.5254-4.5918-8.4346-4.5918-14.7285c0-6.3105,1.5312-11.2285,4.5918-14.7539     c3.0596-3.5264,7.3057-5.2891,12.7363-5.2891c2.2588,0,4.4102,0.3105,6.4531,0.9307c2.043,0.6211,3.9258,1.5352,5.6504,2.7412     v5.5605c-1.7412-1.6377-3.5898-2.8701-5.5469-3.6982c-1.957-0.8271-4.0137-1.2412-6.168-1.2412     c-4.2422,0-7.4316,1.3193-9.5693,3.957s-3.207,6.5693-3.207,11.793c0,5.207,1.0693,9.1299,3.207,11.7676     s5.3271,3.957,9.5693,3.957c1.6719,0,3.1582-0.1592,4.4609-0.4785C403.6016,201.5422,404.7705,201.0471,405.8047,200.3743z"/>
		</g>
	</g>
</g>
</svg>