<?xml version="1.0" encoding="UTF-8" standalone="no"?>
<!-- Created with Inkscape (http://www.inkscape.org/) -->

<svg
   xmlns:dc="http://purl.org/dc/elements/1.1/"
   xmlns:cc="http://creativecommons.org/ns#"
   xmlns:rdf="http://www.w3.org/1999/02/22-rdf-syntax-ns#"
   xmlns:svg="http://www.w3.org/2000/svg"
   xmlns="http://www.w3.org/2000/svg"
   xmlns:sodipodi="http://sodipodi.sourceforge.net/DTD/sodipodi-0.dtd"
   xmlns:inkscape="http://www.inkscape.org/namespaces/inkscape"
   width="200"
   height="200"
   viewBox="0 0 200 200"
   id="svg4388"
   version="1.1"
   inkscape:version="0.91 r13725"
   sodipodi:docname="rhf.svg">
  <defs
     id="defs4390" />
  <sodipodi:namedview
     id="base"
     pagecolor="#ffffff"
     bordercolor="#666666"
     borderopacity="1.0"
     inkscape:pageopacity="0.0"
     inkscape:pageshadow="2"
     inkscape:zoom="3.959798"
     inkscape:cx="111.98816"
     inkscape:cy="99.592842"
     inkscape:document-units="px"
     inkscape:current-layer="layer1"
     showgrid="false"
     units="px"
     inkscape:window-width="1680"
     inkscape:window-height="973"
     inkscape:window-x="0"
     inkscape:window-y="25"
     inkscape:window-maximized="1"
     showguides="true"
     inkscape:guide-bbox="true" />
  <metadata
     id="metadata4393">
    <rdf:RDF>
      <cc:Work
         rdf:about="">
        <dc:format>image/svg+xml</dc:format>
        <dc:type
           rdf:resource="http://purl.org/dc/dcmitype/StillImage" />
        <dc:title />
      </cc:Work>
    </rdf:RDF>
  </metadata>
  <g
     inkscape:label="Vrstva 1"
     inkscape:groupmode="layer"
     id="layer1"
     transform="translate(0,-852.36216)">
    <g
       inkscape:label="Vrstva 1"
       id="layer1-8"
       transform="matrix(1.0057589,0,0,1.0057589,-0.57913327,-5.9933063)"
       style="stroke:none;stroke-opacity:1">
      <path
         inkscape:connector-curvature="0"
         style="fill:#000000;fill-opacity:1;stroke:none;stroke-width:1.99988258;stroke-miterlimit:4;stroke-dasharray:none;stroke-opacity:1"
         d="m 198.03125,439.08008 -23.04368,66.57147 -68.57546,-0.007 13.62109,10.32617 9.10352,0 -6.79297,-5.15039 56.47295,0.10129 19.21455,-55.09152 17.15941,55.09152 58.52614,-0.10129 -6.79297,5.15039 9.10351,0 13.6211,-10.32617 -70.63054,0.007 z m -37.19336,81.87109 c -0.93001,0.0234 -1.65515,0.0693 -2.19727,0.16992 -0.19456,0.0725 -0.38104,0.16604 -0.60937,0.28321 -1.17672,0.60566 -1.3927,1.02527 -2.14648,4.30078 -0.10337,0.44945 -0.18843,0.76441 -0.37696,0.98633 l -0.0684,0.27539 -0.30078,0 c -0.59542,0.25301 -1.76557,0.25389 -4.31055,0.24804 -3.20327,0 -4.46606,-0.10035 -4.97851,-0.39453 -0.0648,-0.0375 -0.16651,-0.0712 -0.30859,-0.10156 -4.69239,-0.0725 -11.57533,-0.14817 -18.50782,-0.19727 l -14.95508,-0.11132 -3.55273,0 -0.91016,0.93554 -0.62695,0.65235 -0.10351,0.11914 -0.0156,0 -0.16406,0.16992 -5.90625,0.58398 c -4.009371,0.39988 -5.952836,0.70195 -6.419924,1.04688 -0.02105,0.0608 -0.03516,0.1271 -0.03516,0.19726 0,0.0585 0.0033,0.10524 0.01758,0.1543 0.06688,0.0632 0.160225,0.12164 0.291016,0.18945 0.281997,0.14499 1.504201,0.34804 2.71289,0.44532 7.194118,0.57924 9.177928,0.87263 9.812498,1.45117 1.48136,1.35 1.22739,1.31967 14.77344,1.38281 5.09519,-0.0655 8.48823,-0.0454 10.95313,0.0762 2.43725,0.0234 4.4237,0.0419 5.2539,0.0606 1.8886,0.0421 4.97864,-0.0839 6.86719,-0.2832 1.8886,-0.19878 5.04175,-0.32137 7.00586,-0.27344 l 3.57031,0.0957 0.19727,1.78516 c 0.30779,2.85271 0.48874,3.56112 1.05664,4.1289 0.74324,0.74341 2.35285,0.6896 4.14648,-0.14453 l 1.4668,-0.6875 0.63672,0 0.1543,-0.0605 9.45117,0.0605 5.02148,0 15.26367,0 0.91797,-0.68554 0.92774,-0.67969 0.875,0.54102 c 0.32324,0.19876 0.61362,0.32432 2.34375,0.40429 0.10406,0 0.18715,0.0234 0.30078,0.0234 0.0571,0.002 0.11959,-0.002 0.17969,0 1.31901,0.0421 3.20482,0.0769 6.05273,0.0957 1.30487,0 2.70988,0.0234 4.46289,0.0234 0.27961,7e-4 0.46418,-9.3e-4 0.75586,0 3.99417,0 9.00751,0.0234 15.78711,0.0234 l 0.14648,0 c 9.61103,0 15.93904,-7e-5 20.31055,-0.0352 6.86602,-0.0514 8.78998,-0.20881 9.27148,-0.6875 0.0444,-0.19175 0.0914,-0.40726 0.14454,-0.68555 -0.009,-0.10758 -0.0156,-0.22028 -0.0156,-0.34375 0,-0.54299 0.048,-0.9026 0.27539,-1.125 l 0.0254,-0.14453 0.19727,0 c 0.45455,-0.21281 1.30773,-0.20178 2.91797,-0.10351 1.51957,0.0935 3.01228,0.32166 3.31445,0.50781 0.3411,0.21046 2.47548,0.42353 5.63086,0.56641 6.41077,0.2902 7.11476,0.25277 8.02734,-0.42188 0.40967,-0.30284 1.11674,-0.54883 1.57032,-0.54883 0.99389,0 4.82859,0.87012 7.8457,1.78516 2.57418,0.78059 7.59708,1.21971 15.375,1.33008 0.68452,0 1.31856,0.0234 2.07031,0.0234 0.50703,0.002 0.98155,0 1.50977,0 9.054,0.0234 9.05881,0.0242 10.25,2.57617 0.34408,0.73826 0.59059,1.69339 0.73047,2.78125 0.002,0 0.005,0.0236 0.008,0.0351 0.009,0.0795 0.0178,0.15885 0.0273,0.24024 0.009,0.0819 0.0204,0.16255 0.0254,0.25 0.14101,1.49031 0.0958,3.18894 -0.14648,4.93554 -0.28616,2.06114 -0.41161,2.3099 -3.7168,7.22852 -0.48349,0.71951 -1.25433,1.2653 -2.78125,1.99023 -1.1625,0.55163 -2.67803,1.43251 -3.36523,1.95704 -0.68721,0.52476 -1.75661,1.09382 -2.37696,1.26367 -2.37161,0.64837 -12.27817,-0.28226 -13.85547,-1.30469 -0.77836,-0.50435 -3.34079,-1.34551 -4.85156,-1.58984 -0.60435,-0.098 -2.52032,-0.59489 -4.25781,-1.10743 -1.73749,-0.51265 -4.39539,-1.14294 -5.90625,-1.39062 -2.88589,-0.4731 -7.65514,-1.96052 -11.41602,-3.57031 -1.22776,-0.52555 -2.68316,-0.95744 -3.23632,-0.96094 -1.25327,0 -3.21547,-0.87896 -4.30078,-1.90625 -0.45329,-0.4291 -1.70013,-1.09445 -2.77344,-1.47656 -1.07327,-0.38211 -3.11363,-1.28867 -4.53321,-2.01758 l -2.19726,-1.125 c -0.22074,-0.0748 -0.43658,-0.13685 -0.65235,-0.19531 l -3.30468,0 c -5.46403,0.0194 -9.8703,0.033 -10.78259,2.98734 l -0.21072,0.26958 -1.22829,2.45467 -0.15377,4.02278 15.59607,45.08789 -46.77539,-32.54883 -1.57227,1.0918 -45.20507,31.45703 15.72416,-52.30193 -5.64213,0 0.0456,0.0341 -19.9733,65.8205 56.62305,-39.40039 56.62305,39.40039 -21.10392,-62.76022 -0.0114,-0.729 1.03464,-1.05932 c 1.48166,-1.5304 4.3542,-2.04131 6.65879,-2.04131 1.96414,0 2.64878,0.22672 3.70899,1.26172 0.18544,0.18006 1.17409,0.59292 2.19726,0.91797 1.02328,0.32505 2.544,0.99408 3.375,1.48633 0.83096,0.49225 2.0662,1.13096 2.7461,1.41601 0.67988,0.28507 1.85393,0.85638 2.60937,1.26954 0.75544,0.41325 3.29097,1.31985 5.63281,2.01757 2.34185,0.69761 6.03618,1.83621 8.20703,2.52344 2.17088,0.68757 5.13662,1.48735 6.5918,1.77734 1.45522,0.29023 2.89118,0.63473 3.19336,0.77344 0.30217,0.13791 0.98289,0.33511 1.51172,0.4375 0.52877,0.10262 1.27073,0.34455 1.64844,0.53321 0.37771,0.18944 1.30317,0.42655 2.05859,0.53124 0.75544,0.10494 2.25683,0.49913 3.33984,0.86719 1.08298,0.36806 2.2211,0.66992 2.52344,0.66992 0.30238,0 1.31552,0.19594 2.25781,0.4375 0.0987,0.0254 0.20049,0.0476 0.30079,0.0684 1.40177,0.1356 3.02,0.21207 5.00585,0.24805 l 0.99415,0.0234 c 4.28543,-0.0934 4.6026,-0.13291 5.76953,-0.80664 0.67988,-0.3917 2.21198,-1.13086 3.40039,-1.64063 1.36794,-0.58691 2.37493,-1.22302 2.74609,-1.72461 0.32248,-0.43563 1.48579,-1.75241 2.5918,-2.92773 1.90386,-2.02294 2.06429,-2.28524 2.9375,-4.97852 1.37451,-4.23965 1.64702,-6.18702 1.22656,-8.64453 -0.46431,-2.7145 -1.73657,-5.22814 -3.15039,-6.20703 -1.62007,-1.12177 -6.09192,-1.63032 -15.38281,-1.76758 -4.07934,-0.0608 -7.85011,-0.23275 -8.37891,-0.3789 -0.12838,-0.0351 -0.30375,-0.0712 -0.50586,-0.10157 -0.77623,-0.0468 -1.45912,-0.0935 -2.07812,-0.15429 -0.0819,-10e-4 -0.16889,0 -0.24805,0 -1.23494,0 -2.26212,-0.18203 -3.02344,-0.52344 -0.63382,-0.2839 -2.60662,-0.73091 -4.38672,-0.99609 -2.69837,-0.402 -3.39393,-0.60588 -4.1875,-1.23633 -1.07275,-0.85262 -1.14086,-0.8715 -6.99804,-1.64063 -2.34185,-0.30727 -5.43189,-0.79659 -6.86719,-1.08984 -1.43534,-0.29324 -3.22698,-0.61701 -3.98242,-0.71289 -2.03659,-0.25817 -2.33594,-0.37949 -2.33594,-0.98633 0,-0.30378 -0.33684,-0.89726 -0.75391,-1.31445 l -0.54101,-0.53125 c -0.50162,-0.1333 -1.40516,-0.21281 -3.16797,-0.28321 l -6.38672,-0.1289 c -5.13536,-0.10528 -11.75108,-0.31094 -14.69726,-0.44727 -2.94622,-0.13563 -11.10534,-0.37678 -18.13086,-0.53906 -6.33552,-0.14499 -11.94553,-0.35021 -17.21094,-0.61914 -0.55881,-0.0234 -0.88745,-0.0442 -1.08203,-0.0605 -7.2864,-0.38935 -13.93706,-0.90789 -20.85157,-1.63867 -2.1152,-0.22449 -6.19383,-0.56307 -9.06445,-0.74805 -1.64675,-0.10527 -2.74312,-0.16726 -3.55469,-0.19531 l -0.002,-0.043 z m -11.46875,9.52149 0,0.006 c 5.56324,-0.002 6.37109,0.1924 6.37109,1.01367 0,0.0655 -0.046,0.11729 -0.16406,0.16406 -0.009,0 -0.0237,0.0234 -0.0508,0.0234 -0.56334,0.18006 -2.52797,0.2207 -7.9668,0.2207 l -0.16406,0 -0.17969,0 c -1.47943,-4.7e-4 -2.73555,-7e-5 -3.75195,-0.0234 -3.99365,-0.0257 -4.82073,-0.12082 -4.93555,-0.41992 -0.0907,-0.23665 -0.0552,-0.53709 0.0781,-0.66992 0.13329,-0.1333 3.76611,-0.26061 8.07812,-0.29102 1.00057,0 1.89082,-0.0234 2.68555,-0.0234 z m 47.24024,0.44922 0,0.004 c 1.3493,0 3.16829,-6.6e-4 5.13476,0.0508 3.197,0.0701 4.93136,0.11545 5.96484,0.19727 0.65646,0.0304 1.14967,0.0642 1.20313,0.10156 0.0561,0.0375 0.11959,0.10171 0.17969,0.17188 0.14661,0.0794 0.24055,0.17606 0.35156,0.29882 0.45396,0.50652 1.03049,0.66924 3.31445,0.91993 1.52037,0.16603 3.23223,0.22791 3.80274,0.13671 0.97447,-0.15902 1.03082,-0.12759 0.94336,0.49024 l -0.0937,0.66015 -11.54688,0.0684 c -8.14066,0.0514 -11.63989,-0.0224 -11.85351,-0.23046 -0.3617,-0.36177 -0.13695,-2.50517 0.29101,-2.78321 0.0809,-0.0514 0.95924,-0.0789 2.3086,-0.0859 z"
         transform="matrix(0.86725177,0,0,0.86725177,-78.794533,496.50818)"
         id="rect3105"
         sodipodi:nodetypes="cccccccccccccccccccccccccccccccccccsccccccccccccccccccccccccccccsscccscccccccsccccccccccsccccccscccccccccccccccccccccccccsccccccccccccsscccccccccccccccscsccccscccccccccccccccsccscccccccccccccccccccccccc" />
    </g>
  </g>
</svg>
